<?xml version="1.0" encoding="utf-8" standalone="no"?>
<!DOCTYPE svg PUBLIC "-//W3C//DTD SVG 1.1//EN"
  "http://www.w3.org/Graphics/SVG/1.1/DTD/svg11.dtd">
<svg xmlns:xlink="http://www.w3.org/1999/xlink" width="460.8pt" height="345.6pt" viewBox="0 0 460.8 345.6" xmlns="http://www.w3.org/2000/svg" version="1.1">
 <metadata>
  <rdf:RDF xmlns:dc="http://purl.org/dc/elements/1.1/" xmlns:cc="http://creativecommons.org/ns#" xmlns:rdf="http://www.w3.org/1999/02/22-rdf-syntax-ns#">
   <cc:Work>
    <dc:type rdf:resource="http://purl.org/dc/dcmitype/StillImage"/>
    <dc:date>2025-10-20T13:04:04.198471</dc:date>
    <dc:format>image/svg+xml</dc:format>
    <dc:creator>
     <cc:Agent>
      <dc:title>Matplotlib v3.10.7, https://matplotlib.org/</dc:title>
     </cc:Agent>
    </dc:creator>
   </cc:Work>
  </rdf:RDF>
 </metadata>
 <defs>
  <style type="text/css">*{stroke-linejoin: round; stroke-linecap: butt}</style>
 </defs>
 <g id="figure_1">
  <g id="patch_1">
   <path d="M 0 345.6 
L 460.8 345.6 
L 460.8 0 
L 0 0 
z
" style="fill: #ffffff"/>
  </g>
  <g id="axes_1">
   <g id="patch_2">
    <path d="M 57.6 307.584 
L 414.72 307.584 
L 414.72 41.472 
L 57.6 41.472 
z
" style="fill: #ffffff"/>
   </g>
   <g id="matplotlib.axis_1">
    <g id="xtick_1">
     <g id="line2d_1">
      <defs>
       <path id="mf69fea98ef" d="M 0 0 
L 0 3.5 
" style="stroke: #000000; stroke-width: 0.8"/>
      </defs>
      <g>
       <use xlink:href="#mf69fea98ef" x="73.832727" y="307.584" style="stroke: #000000; stroke-width: 0.8"/>
      </g>
     </g>
     <g id="text_1">
      <!-- 0 -->
      <g transform="translate(70.651477 322.182437) scale(0.1 -0.1)">
       <defs>
        <path id="DejaVuSans-30" d="M 2034 4250 
Q 1547 4250 1301 3770 
Q 1056 3291 1056 2328 
Q 1056 1369 1301 889 
Q 1547 409 2034 409 
Q 2525 409 2770 889 
Q 3016 1369 3016 2328 
Q 3016 3291 2770 3770 
Q 2525 4250 2034 4250 
z
M 2034 4750 
Q 2819 4750 3233 4129 
Q 3647 3509 3647 2328 
Q 3647 1150 3233 529 
Q 2819 -91 2034 -91 
Q 1250 -91 836 529 
Q 422 1150 422 2328 
Q 422 3509 836 4129 
Q 1250 4750 2034 4750 
z
" transform="scale(0.015625)"/>
       </defs>
       <use xlink:href="#DejaVuSans-30"/>
      </g>
     </g>
    </g>
    <g id="xtick_2">
     <g id="line2d_2">
      <g>
       <use xlink:href="#mf69fea98ef" x="118.98635" y="307.584" style="stroke: #000000; stroke-width: 0.8"/>
      </g>
     </g>
     <g id="text_2">
      <!-- 500 -->
      <g transform="translate(109.4426 322.182437) scale(0.1 -0.1)">
       <defs>
        <path id="DejaVuSans-35" d="M 691 4666 
L 3169 4666 
L 3169 4134 
L 1269 4134 
L 1269 2991 
Q 1406 3038 1543 3061 
Q 1681 3084 1819 3084 
Q 2600 3084 3056 2656 
Q 3513 2228 3513 1497 
Q 3513 744 3044 326 
Q 2575 -91 1722 -91 
Q 1428 -91 1123 -41 
Q 819 9 494 109 
L 494 744 
Q 775 591 1075 516 
Q 1375 441 1709 441 
Q 2250 441 2565 725 
Q 2881 1009 2881 1497 
Q 2881 1984 2565 2268 
Q 2250 2553 1709 2553 
Q 1456 2553 1204 2497 
Q 953 2441 691 2322 
L 691 4666 
z
" transform="scale(0.015625)"/>
       </defs>
       <use xlink:href="#DejaVuSans-35"/>
       <use xlink:href="#DejaVuSans-30" transform="translate(63.623047 0)"/>
       <use xlink:href="#DejaVuSans-30" transform="translate(127.246094 0)"/>
      </g>
     </g>
    </g>
    <g id="xtick_3">
     <g id="line2d_3">
      <g>
       <use xlink:href="#mf69fea98ef" x="164.139972" y="307.584" style="stroke: #000000; stroke-width: 0.8"/>
      </g>
     </g>
     <g id="text_3">
      <!-- 1000 -->
      <g transform="translate(151.414972 322.182437) scale(0.1 -0.1)">
       <defs>
        <path id="DejaVuSans-31" d="M 794 531 
L 1825 531 
L 1825 4091 
L 703 3866 
L 703 4441 
L 1819 4666 
L 2450 4666 
L 2450 531 
L 3481 531 
L 3481 0 
L 794 0 
L 794 531 
z
" transform="scale(0.015625)"/>
       </defs>
       <use xlink:href="#DejaVuSans-31"/>
       <use xlink:href="#DejaVuSans-30" transform="translate(63.623047 0)"/>
       <use xlink:href="#DejaVuSans-30" transform="translate(127.246094 0)"/>
       <use xlink:href="#DejaVuSans-30" transform="translate(190.869141 0)"/>
      </g>
     </g>
    </g>
    <g id="xtick_4">
     <g id="line2d_4">
      <g>
       <use xlink:href="#mf69fea98ef" x="209.293595" y="307.584" style="stroke: #000000; stroke-width: 0.8"/>
      </g>
     </g>
     <g id="text_4">
      <!-- 1500 -->
      <g transform="translate(196.568595 322.182437) scale(0.1 -0.1)">
       <use xlink:href="#DejaVuSans-31"/>
       <use xlink:href="#DejaVuSans-35" transform="translate(63.623047 0)"/>
       <use xlink:href="#DejaVuSans-30" transform="translate(127.246094 0)"/>
       <use xlink:href="#DejaVuSans-30" transform="translate(190.869141 0)"/>
      </g>
     </g>
    </g>
    <g id="xtick_5">
     <g id="line2d_5">
      <g>
       <use xlink:href="#mf69fea98ef" x="254.447217" y="307.584" style="stroke: #000000; stroke-width: 0.8"/>
      </g>
     </g>
     <g id="text_5">
      <!-- 2000 -->
      <g transform="translate(241.722217 322.182437) scale(0.1 -0.1)">
       <defs>
        <path id="DejaVuSans-32" d="M 1228 531 
L 3431 531 
L 3431 0 
L 469 0 
L 469 531 
Q 828 903 1448 1529 
Q 2069 2156 2228 2338 
Q 2531 2678 2651 2914 
Q 2772 3150 2772 3378 
Q 2772 3750 2511 3984 
Q 2250 4219 1831 4219 
Q 1534 4219 1204 4116 
Q 875 4013 500 3803 
L 500 4441 
Q 881 4594 1212 4672 
Q 1544 4750 1819 4750 
Q 2544 4750 2975 4387 
Q 3406 4025 3406 3419 
Q 3406 3131 3298 2873 
Q 3191 2616 2906 2266 
Q 2828 2175 2409 1742 
Q 1991 1309 1228 531 
z
" transform="scale(0.015625)"/>
       </defs>
       <use xlink:href="#DejaVuSans-32"/>
       <use xlink:href="#DejaVuSans-30" transform="translate(63.623047 0)"/>
       <use xlink:href="#DejaVuSans-30" transform="translate(127.246094 0)"/>
       <use xlink:href="#DejaVuSans-30" transform="translate(190.869141 0)"/>
      </g>
     </g>
    </g>
    <g id="xtick_6">
     <g id="line2d_6">
      <g>
       <use xlink:href="#mf69fea98ef" x="299.60084" y="307.584" style="stroke: #000000; stroke-width: 0.8"/>
      </g>
     </g>
     <g id="text_6">
      <!-- 2500 -->
      <g transform="translate(286.87584 322.182437) scale(0.1 -0.1)">
       <use xlink:href="#DejaVuSans-32"/>
       <use xlink:href="#DejaVuSans-35" transform="translate(63.623047 0)"/>
       <use xlink:href="#DejaVuSans-30" transform="translate(127.246094 0)"/>
       <use xlink:href="#DejaVuSans-30" transform="translate(190.869141 0)"/>
      </g>
     </g>
    </g>
    <g id="xtick_7">
     <g id="line2d_7">
      <g>
       <use xlink:href="#mf69fea98ef" x="344.754462" y="307.584" style="stroke: #000000; stroke-width: 0.8"/>
      </g>
     </g>
     <g id="text_7">
      <!-- 3000 -->
      <g transform="translate(332.029462 322.182437) scale(0.1 -0.1)">
       <defs>
        <path id="DejaVuSans-33" d="M 2597 2516 
Q 3050 2419 3304 2112 
Q 3559 1806 3559 1356 
Q 3559 666 3084 287 
Q 2609 -91 1734 -91 
Q 1441 -91 1130 -33 
Q 819 25 488 141 
L 488 750 
Q 750 597 1062 519 
Q 1375 441 1716 441 
Q 2309 441 2620 675 
Q 2931 909 2931 1356 
Q 2931 1769 2642 2001 
Q 2353 2234 1838 2234 
L 1294 2234 
L 1294 2753 
L 1863 2753 
Q 2328 2753 2575 2939 
Q 2822 3125 2822 3475 
Q 2822 3834 2567 4026 
Q 2313 4219 1838 4219 
Q 1578 4219 1281 4162 
Q 984 4106 628 3988 
L 628 4550 
Q 988 4650 1302 4700 
Q 1616 4750 1894 4750 
Q 2613 4750 3031 4423 
Q 3450 4097 3450 3541 
Q 3450 3153 3228 2886 
Q 3006 2619 2597 2516 
z
" transform="scale(0.015625)"/>
       </defs>
       <use xlink:href="#DejaVuSans-33"/>
       <use xlink:href="#DejaVuSans-30" transform="translate(63.623047 0)"/>
       <use xlink:href="#DejaVuSans-30" transform="translate(127.246094 0)"/>
       <use xlink:href="#DejaVuSans-30" transform="translate(190.869141 0)"/>
      </g>
     </g>
    </g>
    <g id="xtick_8">
     <g id="line2d_8">
      <g>
       <use xlink:href="#mf69fea98ef" x="389.908084" y="307.584" style="stroke: #000000; stroke-width: 0.8"/>
      </g>
     </g>
     <g id="text_8">
      <!-- 3500 -->
      <g transform="translate(377.183084 322.182437) scale(0.1 -0.1)">
       <use xlink:href="#DejaVuSans-33"/>
       <use xlink:href="#DejaVuSans-35" transform="translate(63.623047 0)"/>
       <use xlink:href="#DejaVuSans-30" transform="translate(127.246094 0)"/>
       <use xlink:href="#DejaVuSans-30" transform="translate(190.869141 0)"/>
      </g>
     </g>
    </g>
   </g>
   <g id="matplotlib.axis_2">
    <g id="ytick_1">
     <g id="line2d_9">
      <defs>
       <path id="mb7d9d4691c" d="M 0 0 
L -3.5 0 
" style="stroke: #000000; stroke-width: 0.8"/>
      </defs>
      <g>
       <use xlink:href="#mb7d9d4691c" x="57.6" y="267.057896" style="stroke: #000000; stroke-width: 0.8"/>
      </g>
     </g>
     <g id="text_9">
      <!-- 7.5 -->
      <g transform="translate(34.696875 270.857115) scale(0.1 -0.1)">
       <defs>
        <path id="DejaVuSans-37" d="M 525 4666 
L 3525 4666 
L 3525 4397 
L 1831 0 
L 1172 0 
L 2766 4134 
L 525 4134 
L 525 4666 
z
" transform="scale(0.015625)"/>
        <path id="DejaVuSans-2e" d="M 684 794 
L 1344 794 
L 1344 0 
L 684 0 
L 684 794 
z
" transform="scale(0.015625)"/>
       </defs>
       <use xlink:href="#DejaVuSans-37"/>
       <use xlink:href="#DejaVuSans-2e" transform="translate(63.623047 0)"/>
       <use xlink:href="#DejaVuSans-35" transform="translate(95.410156 0)"/>
      </g>
     </g>
    </g>
    <g id="ytick_2">
     <g id="line2d_10">
      <g>
       <use xlink:href="#mb7d9d4691c" x="57.6" y="224.185235" style="stroke: #000000; stroke-width: 0.8"/>
      </g>
     </g>
     <g id="text_10">
      <!-- 8.0 -->
      <g transform="translate(34.696875 227.984454) scale(0.1 -0.1)">
       <defs>
        <path id="DejaVuSans-38" d="M 2034 2216 
Q 1584 2216 1326 1975 
Q 1069 1734 1069 1313 
Q 1069 891 1326 650 
Q 1584 409 2034 409 
Q 2484 409 2743 651 
Q 3003 894 3003 1313 
Q 3003 1734 2745 1975 
Q 2488 2216 2034 2216 
z
M 1403 2484 
Q 997 2584 770 2862 
Q 544 3141 544 3541 
Q 544 4100 942 4425 
Q 1341 4750 2034 4750 
Q 2731 4750 3128 4425 
Q 3525 4100 3525 3541 
Q 3525 3141 3298 2862 
Q 3072 2584 2669 2484 
Q 3125 2378 3379 2068 
Q 3634 1759 3634 1313 
Q 3634 634 3220 271 
Q 2806 -91 2034 -91 
Q 1263 -91 848 271 
Q 434 634 434 1313 
Q 434 1759 690 2068 
Q 947 2378 1403 2484 
z
M 1172 3481 
Q 1172 3119 1398 2916 
Q 1625 2713 2034 2713 
Q 2441 2713 2670 2916 
Q 2900 3119 2900 3481 
Q 2900 3844 2670 4047 
Q 2441 4250 2034 4250 
Q 1625 4250 1398 4047 
Q 1172 3844 1172 3481 
z
" transform="scale(0.015625)"/>
       </defs>
       <use xlink:href="#DejaVuSans-38"/>
       <use xlink:href="#DejaVuSans-2e" transform="translate(63.623047 0)"/>
       <use xlink:href="#DejaVuSans-30" transform="translate(95.410156 0)"/>
      </g>
     </g>
    </g>
    <g id="ytick_3">
     <g id="line2d_11">
      <g>
       <use xlink:href="#mb7d9d4691c" x="57.6" y="181.312573" style="stroke: #000000; stroke-width: 0.8"/>
      </g>
     </g>
     <g id="text_11">
      <!-- 8.5 -->
      <g transform="translate(34.696875 185.111792) scale(0.1 -0.1)">
       <use xlink:href="#DejaVuSans-38"/>
       <use xlink:href="#DejaVuSans-2e" transform="translate(63.623047 0)"/>
       <use xlink:href="#DejaVuSans-35" transform="translate(95.410156 0)"/>
      </g>
     </g>
    </g>
    <g id="ytick_4">
     <g id="line2d_12">
      <g>
       <use xlink:href="#mb7d9d4691c" x="57.6" y="138.439912" style="stroke: #000000; stroke-width: 0.8"/>
      </g>
     </g>
     <g id="text_12">
      <!-- 9.0 -->
      <g transform="translate(34.696875 142.239131) scale(0.1 -0.1)">
       <defs>
        <path id="DejaVuSans-39" d="M 703 97 
L 703 672 
Q 941 559 1184 500 
Q 1428 441 1663 441 
Q 2288 441 2617 861 
Q 2947 1281 2994 2138 
Q 2813 1869 2534 1725 
Q 2256 1581 1919 1581 
Q 1219 1581 811 2004 
Q 403 2428 403 3163 
Q 403 3881 828 4315 
Q 1253 4750 1959 4750 
Q 2769 4750 3195 4129 
Q 3622 3509 3622 2328 
Q 3622 1225 3098 567 
Q 2575 -91 1691 -91 
Q 1453 -91 1209 -44 
Q 966 3 703 97 
z
M 1959 2075 
Q 2384 2075 2632 2365 
Q 2881 2656 2881 3163 
Q 2881 3666 2632 3958 
Q 2384 4250 1959 4250 
Q 1534 4250 1286 3958 
Q 1038 3666 1038 3163 
Q 1038 2656 1286 2365 
Q 1534 2075 1959 2075 
z
" transform="scale(0.015625)"/>
       </defs>
       <use xlink:href="#DejaVuSans-39"/>
       <use xlink:href="#DejaVuSans-2e" transform="translate(63.623047 0)"/>
       <use xlink:href="#DejaVuSans-30" transform="translate(95.410156 0)"/>
      </g>
     </g>
    </g>
    <g id="ytick_5">
     <g id="line2d_13">
      <g>
       <use xlink:href="#mb7d9d4691c" x="57.6" y="95.56725" style="stroke: #000000; stroke-width: 0.8"/>
      </g>
     </g>
     <g id="text_13">
      <!-- 9.5 -->
      <g transform="translate(34.696875 99.366469) scale(0.1 -0.1)">
       <use xlink:href="#DejaVuSans-39"/>
       <use xlink:href="#DejaVuSans-2e" transform="translate(63.623047 0)"/>
       <use xlink:href="#DejaVuSans-35" transform="translate(95.410156 0)"/>
      </g>
     </g>
    </g>
    <g id="ytick_6">
     <g id="line2d_14">
      <g>
       <use xlink:href="#mb7d9d4691c" x="57.6" y="52.694589" style="stroke: #000000; stroke-width: 0.8"/>
      </g>
     </g>
     <g id="text_14">
      <!-- 10.0 -->
      <g transform="translate(28.334375 56.493807) scale(0.1 -0.1)">
       <use xlink:href="#DejaVuSans-31"/>
       <use xlink:href="#DejaVuSans-30" transform="translate(63.623047 0)"/>
       <use xlink:href="#DejaVuSans-2e" transform="translate(127.246094 0)"/>
       <use xlink:href="#DejaVuSans-30" transform="translate(159.033203 0)"/>
      </g>
     </g>
    </g>
    <g id="text_15">
     <!-- 1e−6+9.9999e−1 -->
     <g transform="translate(57.6 38.472) scale(0.1 -0.1)">
      <defs>
       <path id="DejaVuSans-65" d="M 3597 1894 
L 3597 1613 
L 953 1613 
Q 991 1019 1311 708 
Q 1631 397 2203 397 
Q 2534 397 2845 478 
Q 3156 559 3463 722 
L 3463 178 
Q 3153 47 2828 -22 
Q 2503 -91 2169 -91 
Q 1331 -91 842 396 
Q 353 884 353 1716 
Q 353 2575 817 3079 
Q 1281 3584 2069 3584 
Q 2775 3584 3186 3129 
Q 3597 2675 3597 1894 
z
M 3022 2063 
Q 3016 2534 2758 2815 
Q 2500 3097 2075 3097 
Q 1594 3097 1305 2825 
Q 1016 2553 972 2059 
L 3022 2063 
z
" transform="scale(0.015625)"/>
       <path id="DejaVuSans-2212" d="M 678 2272 
L 4684 2272 
L 4684 1741 
L 678 1741 
L 678 2272 
z
" transform="scale(0.015625)"/>
       <path id="DejaVuSans-36" d="M 2113 2584 
Q 1688 2584 1439 2293 
Q 1191 2003 1191 1497 
Q 1191 994 1439 701 
Q 1688 409 2113 409 
Q 2538 409 2786 701 
Q 3034 994 3034 1497 
Q 3034 2003 2786 2293 
Q 2538 2584 2113 2584 
z
M 3366 4563 
L 3366 3988 
Q 3128 4100 2886 4159 
Q 2644 4219 2406 4219 
Q 1781 4219 1451 3797 
Q 1122 3375 1075 2522 
Q 1259 2794 1537 2939 
Q 1816 3084 2150 3084 
Q 2853 3084 3261 2657 
Q 3669 2231 3669 1497 
Q 3669 778 3244 343 
Q 2819 -91 2113 -91 
Q 1303 -91 875 529 
Q 447 1150 447 2328 
Q 447 3434 972 4092 
Q 1497 4750 2381 4750 
Q 2619 4750 2861 4703 
Q 3103 4656 3366 4563 
z
" transform="scale(0.015625)"/>
       <path id="DejaVuSans-2b" d="M 2944 4013 
L 2944 2272 
L 4684 2272 
L 4684 1741 
L 2944 1741 
L 2944 0 
L 2419 0 
L 2419 1741 
L 678 1741 
L 678 2272 
L 2419 2272 
L 2419 4013 
L 2944 4013 
z
" transform="scale(0.015625)"/>
      </defs>
      <use xlink:href="#DejaVuSans-31"/>
      <use xlink:href="#DejaVuSans-65" transform="translate(63.623047 0)"/>
      <use xlink:href="#DejaVuSans-2212" transform="translate(125.146484 0)"/>
      <use xlink:href="#DejaVuSans-36" transform="translate(208.935547 0)"/>
      <use xlink:href="#DejaVuSans-2b" transform="translate(272.558594 0)"/>
      <use xlink:href="#DejaVuSans-39" transform="translate(356.347656 0)"/>
      <use xlink:href="#DejaVuSans-2e" transform="translate(419.970703 0)"/>
      <use xlink:href="#DejaVuSans-39" transform="translate(451.757812 0)"/>
      <use xlink:href="#DejaVuSans-39" transform="translate(515.380859 0)"/>
      <use xlink:href="#DejaVuSans-39" transform="translate(579.003906 0)"/>
      <use xlink:href="#DejaVuSans-39" transform="translate(642.626953 0)"/>
      <use xlink:href="#DejaVuSans-65" transform="translate(706.25 0)"/>
      <use xlink:href="#DejaVuSans-2212" transform="translate(767.773438 0)"/>
      <use xlink:href="#DejaVuSans-31" transform="translate(851.5625 0)"/>
     </g>
    </g>
   </g>
   <g id="line2d_15">
    <path d="M 73.832727 58.229057 
L 74.013342 58.148157 
L 74.555185 58.44477 
L 74.7358 58.100877 
L 74.916414 58.162412 
L 75.097029 57.927331 
L 75.277643 58.173251 
L 75.36795 58.088077 
L 75.548565 57.876952 
L 75.819487 58.317987 
L 76.000101 57.870494 
L 76.271023 58.465965 
L 76.36133 58.229618 
L 76.541945 57.158275 
L 76.812866 57.06232 
L 76.903174 56.992799 
L 77.264403 57.582267 
L 77.625632 57.420015 
L 77.986861 58.369131 
L 78.167475 58.131281 
L 78.619011 57.387874 
L 78.799626 57.615034 
L 78.98024 57.704418 
L 79.160855 57.520491 
L 79.522084 57.48674 
L 79.612391 57.362008 
L 79.883313 56.663497 
L 80.063927 56.801346 
L 80.244542 56.732267 
L 80.425156 56.830964 
L 80.605771 56.478889 
L 80.786385 56.514385 
L 81.237921 56.306768 
L 81.508843 56.254069 
L 81.779765 56.216876 
L 82.050687 56.313691 
L 82.140994 56.295842 
L 82.411916 55.9993 
L 82.502223 55.969679 
L 82.682837 55.68239 
L 82.773145 55.67922 
L 83.314988 56.929383 
L 83.405295 56.980596 
L 83.495602 57.160863 
L 83.676217 58.517129 
L 83.947139 58.119811 
L 84.037446 58.296972 
L 84.398675 58.332614 
L 84.579289 58.456849 
L 84.759904 58.138119 
L 84.940518 58.136214 
L 85.121133 55.985046 
L 85.482362 55.571995 
L 85.662976 55.64516 
L 85.933898 55.600038 
L 86.20482 55.854446 
L 86.475742 55.83459 
L 86.656356 55.881424 
L 86.927278 55.765199 
L 87.288507 55.99455 
L 87.559428 55.838674 
L 87.920657 56.089988 
L 88.733423 55.681889 
L 89.004344 56.16791 
L 89.275266 55.650444 
L 89.546188 55.872376 
L 89.636495 55.643665 
L 90.268646 56.404015 
L 90.44926 57.000342 
L 90.629875 56.795637 
L 90.810489 56.920075 
L 91.081411 57.161012 
L 91.532947 57.12608 
L 91.713562 57.439247 
L 91.803869 57.395185 
L 91.984483 58.058556 
L 92.616634 60.325092 
L 92.887556 60.428954 
L 93.06817 60.365072 
L 93.339092 60.061052 
L 93.700321 60.023493 
L 94.242165 59.787176 
L 94.603394 60.215218 
L 94.693701 60.489251 
L 94.784008 60.451415 
L 95.416159 60.063089 
L 95.596773 60.248752 
L 95.777388 59.99956 
L 95.958002 59.804416 
L 96.04831 59.822933 
L 96.228924 59.401849 
L 96.499846 59.047992 
L 96.68046 59.479853 
L 96.770767 59.523011 
L 97.131996 58.812093 
L 97.222304 58.954407 
L 97.493225 58.356365 
L 97.583533 58.264422 
L 97.764147 58.776265 
L 97.944762 58.62571 
L 98.215683 58.098218 
L 98.305991 58.226777 
L 98.486605 58.712469 
L 98.66722 58.996117 
L 98.757527 58.834033 
L 98.847834 58.906805 
L 99.209063 59.548149 
L 99.389678 59.633163 
L 99.570292 59.308069 
L 100.021828 58.595522 
L 100.29275 58.880598 
L 100.744286 57.934376 
L 100.924901 57.777113 
L 101.015208 57.812145 
L 101.376437 57.43124 
L 101.466744 57.447656 
L 101.557051 57.591627 
L 101.737666 58.003241 
L 102.279509 56.74213 
L 102.369817 56.964981 
L 102.640738 58.05648 
L 102.731046 58.093029 
L 103.001967 57.748253 
L 103.182582 58.034835 
L 103.543811 57.213107 
L 103.634118 57.200931 
L 103.90504 57.922757 
L 104.175962 57.680232 
L 104.266269 57.446688 
L 104.537191 57.979414 
L 104.808112 57.761938 
L 104.89842 57.758024 
L 105.169341 58.074773 
L 105.440263 58.128376 
L 105.53057 57.982949 
L 105.711185 58.166356 
L 105.982106 57.893248 
L 106.253028 59.103968 
L 106.614257 59.711566 
L 106.794872 59.264649 
L 106.885179 59.21061 
L 107.065793 59.410693 
L 107.156101 59.347366 
L 107.336715 58.977742 
L 107.427022 59.071976 
L 107.607637 59.655735 
L 107.697944 59.586483 
L 107.878559 59.01349 
L 108.059173 59.309529 
L 108.420402 58.944145 
L 108.601017 59.092185 
L 108.781631 59.591135 
L 109.14286 60.269635 
L 109.775011 61.360851 
L 109.955625 61.325909 
L 110.226547 61.724985 
L 110.316854 61.582231 
L 110.76839 64.193833 
L 111.039312 65.235414 
L 111.219927 65.272714 
L 111.490848 66.420949 
L 111.581156 66.234731 
L 111.671463 66.772173 
L 111.942385 70.143045 
L 112.122999 70.365925 
L 112.303614 71.992587 
L 112.484228 74.049109 
L 112.845457 75.294383 
L 113.116379 76.288586 
L 113.477608 80.996529 
L 113.567915 81.062724 
L 113.74853 79.732012 
L 113.838837 79.479429 
L 114.290373 80.621259 
L 114.38068 80.614564 
L 114.561295 80.070004 
L 114.651602 79.750574 
L 114.741909 79.824081 
L 114.922524 80.427791 
L 115.103138 79.538012 
L 115.37406 78.195365 
L 115.464367 78.103978 
L 115.644982 78.352645 
L 116.186825 79.390765 
L 116.277132 79.3741 
L 116.548054 78.80873 
L 116.638361 78.156196 
L 116.818976 78.719977 
L 116.909283 79.093148 
L 116.99959 79.023805 
L 117.089898 78.839804 
L 117.360819 77.511287 
L 117.451127 78.451741 
L 117.541434 78.352086 
L 117.812356 77.149701 
L 117.99297 77.248959 
L 118.173585 78.531154 
L 118.354199 79.496528 
L 118.625121 81.561491 
L 118.896042 81.869511 
L 119.076657 82.319656 
L 119.257271 82.147577 
L 119.6185 81.138344 
L 119.708808 81.344083 
L 119.889422 82.247663 
L 119.979729 82.3052 
L 120.340958 81.133506 
L 120.61188 82.111256 
L 120.792495 81.485244 
L 121.063416 81.133369 
L 121.153724 81.370173 
L 121.514953 83.653225 
L 121.966489 85.130916 
L 122.147103 85.337377 
L 122.418025 85.059991 
L 122.59864 85.279081 
L 122.688947 85.253011 
L 122.779254 85.072032 
L 123.050176 83.978394 
L 123.321097 84.217723 
L 123.682326 83.837032 
L 123.772634 83.548307 
L 123.862941 83.606964 
L 124.133863 84.194845 
L 124.22417 84.044224 
L 124.495092 83.757881 
L 124.585399 83.913095 
L 124.856321 85.345067 
L 124.946628 85.013306 
L 125.127242 85.254741 
L 125.21755 85.267435 
L 125.398164 85.437559 
L 125.488471 85.938495 
L 125.669086 85.631302 
L 125.8497 84.686293 
L 125.940008 84.802267 
L 126.120622 84.576144 
L 126.391544 83.889723 
L 126.752773 85.266014 
L 127.023695 86.430323 
L 127.114002 86.565255 
L 127.926767 85.150559 
L 128.107381 85.436549 
L 128.197689 85.380552 
L 128.287996 85.486589 
L 128.378303 85.148387 
L 128.46861 85.437578 
L 128.558918 85.265231 
L 128.649225 85.379566 
L 128.739532 84.440425 
L 128.829839 85.253181 
L 128.920147 85.111462 
L 129.191068 83.965382 
L 129.371683 83.499977 
L 129.732912 82.123648 
L 129.913526 82.172544 
L 130.094141 82.93188 
L 130.184448 82.845412 
L 130.45537 81.565727 
L 130.635984 81.298576 
L 130.906906 81.78283 
L 131.087521 82.151105 
L 131.44875 83.383209 
L 131.719671 82.631664 
L 131.990593 83.701469 
L 132.0809 83.530346 
L 132.171207 83.928554 
L 132.351822 83.489882 
L 132.532436 83.179153 
L 132.893665 85.330642 
L 133.254894 83.453265 
L 133.345202 82.227116 
L 133.435509 82.304929 
L 133.525816 82.612555 
L 133.706431 82.388849 
L 133.887045 82.451789 
L 133.977352 82.724354 
L 134.338581 81.948712 
L 134.609503 80.080413 
L 134.69981 80.084663 
L 134.880425 80.51016 
L 135.241654 79.083819 
L 135.602883 79.695165 
L 135.783497 80.641462 
L 135.964112 82.102722 
L 136.235034 81.896484 
L 136.325341 81.95164 
L 136.505955 81.817896 
L 136.776877 82.006639 
L 136.867184 82.053532 
L 137.228413 81.048483 
L 137.31872 81.109275 
L 137.499335 81.744796 
L 137.589642 81.762791 
L 137.860564 82.524682 
L 138.041178 81.720441 
L 138.3121 82.860766 
L 138.492715 83.572851 
L 138.763636 83.530532 
L 139.034558 82.515604 
L 139.124865 82.465413 
L 139.30548 82.96059 
L 139.395787 82.805063 
L 139.576402 84.582755 
L 139.757016 86.245976 
L 139.847323 86.361068 
L 139.937631 86.211078 
L 140.027938 86.316541 
L 140.29886 85.552834 
L 140.569781 84.042354 
L 140.660089 84.087101 
L 140.93101 85.139653 
L 141.111625 84.863007 
L 141.292239 85.817803 
L 141.472854 86.558792 
L 141.563161 86.446006 
L 141.834083 84.751328 
L 141.92439 84.515165 
L 142.014697 84.570575 
L 142.105004 84.912951 
L 142.285619 86.083148 
L 142.556541 86.690847 
L 142.91777 87.37986 
L 143.278999 86.490216 
L 143.459613 88.904325 
L 143.640228 90.08232 
L 143.911149 89.165252 
L 144.182071 89.362763 
L 144.362686 89.379439 
L 144.723915 87.710528 
L 145.085144 86.813104 
L 145.175451 87.01975 
L 145.356065 88.645241 
L 145.53668 88.905895 
L 145.717294 87.843665 
L 145.897909 88.260591 
L 145.988216 88.292095 
L 146.16883 88.225698 
L 146.349445 88.634742 
L 146.620367 86.4179 
L 146.981596 83.815872 
L 147.342825 85.01855 
L 147.433132 85.807362 
L 147.523439 85.791803 
L 147.704054 84.878496 
L 147.974975 83.229018 
L 148.15559 83.132248 
L 148.245897 83.234561 
L 148.426512 84.174062 
L 148.516819 84.153665 
L 149.058662 80.796341 
L 149.239277 81.678862 
L 149.419891 82.447289 
L 149.510199 82.205485 
L 149.690813 82.784981 
L 149.871427 87.499438 
L 150.052042 88.466381 
L 150.232656 87.616811 
L 150.322964 87.645577 
L 150.7745 89.346006 
L 150.955114 88.517006 
L 151.045422 88.671717 
L 151.135729 88.469448 
L 151.406651 88.855775 
L 151.496958 88.753634 
L 151.677572 87.120278 
L 151.858187 87.5705 
L 152.129109 90.99629 
L 152.309723 89.070417 
L 152.40003 89.193678 
L 152.670952 90.654269 
L 152.941874 92.226189 
L 153.032181 91.964282 
L 153.212796 92.501267 
L 153.303103 92.364488 
L 153.39341 91.82955 
L 153.574025 92.184325 
L 153.754639 92.881877 
L 153.935254 92.01892 
L 154.025561 91.660605 
L 154.115868 91.776511 
L 154.296482 92.627708 
L 154.38679 92.654661 
L 154.477097 91.490811 
L 154.567404 91.655965 
L 154.657711 91.719438 
L 154.748019 92.122402 
L 154.838326 91.79139 
L 155.01894 90.339849 
L 155.289862 89.284649 
L 155.380169 89.158965 
L 155.560784 89.89667 
L 156.01232 93.709492 
L 156.102627 93.715983 
L 156.463856 88.776984 
L 156.554164 88.484625 
L 156.915393 85.508714 
L 157.096007 82.282388 
L 157.276622 83.126587 
L 157.366929 82.608494 
L 157.908772 83.803579 
L 157.99908 84.017171 
L 158.089387 83.571115 
L 158.179694 83.754015 
L 158.270001 83.596149 
L 158.450616 83.71303 
L 158.721537 85.54271 
L 159.082766 86.77946 
L 159.173074 86.661725 
L 159.263381 87.169865 
L 159.443995 86.214833 
L 159.714917 88.009501 
L 159.985839 87.661446 
L 160.347068 89.276503 
L 160.888911 92.437581 
L 161.069526 92.054711 
L 161.340448 91.769524 
L 161.430755 92.075759 
L 161.521062 91.92404 
L 161.972598 94.199349 
L 162.333827 94.015061 
L 162.514442 94.529104 
L 162.604749 95.368969 
L 162.695056 95.064909 
L 162.875671 94.030558 
L 163.056285 93.481853 
L 163.417514 96.707293 
L 163.507821 96.422161 
L 163.688436 95.19622 
L 163.86905 95.49682 
L 164.049665 96.745576 
L 164.139972 97.90187 
L 164.230279 97.677593 
L 164.320587 98.096527 
L 164.501201 97.492311 
L 164.952737 105.802006 
L 165.043045 106.579923 
L 165.313966 110.80638 
L 165.404274 111.120117 
L 165.494581 110.724239 
L 165.584888 110.793217 
L 165.675195 110.840575 
L 165.946117 124.642693 
L 166.217039 126.658538 
L 166.487961 126.988778 
L 166.668575 129.651623 
L 166.758882 128.914988 
L 166.84919 129.568812 
L 166.939497 129.36411 
L 167.391033 131.934943 
L 167.571647 135.687179 
L 167.752262 131.792682 
L 168.023184 133.696849 
L 168.113491 134.700524 
L 168.294105 138.259028 
L 168.384413 138.501811 
L 168.47472 138.179878 
L 168.745642 140.698891 
L 168.926256 141.672318 
L 169.287485 146.079168 
L 169.558407 146.056173 
L 169.829329 143.686393 
L 169.919636 143.377997 
L 170.10025 143.730358 
L 170.190558 143.651557 
L 170.551787 137.780554 
L 170.642094 137.714584 
L 170.913016 141.376066 
L 171.364552 151.10377 
L 171.635474 152.755978 
L 171.725781 152.37327 
L 171.816088 151.099021 
L 171.906395 151.32873 
L 172.448239 161.042051 
L 172.538546 160.603255 
L 172.809468 160.034582 
L 172.899775 160.86562 
L 172.990082 160.239213 
L 173.080389 160.852419 
L 173.351311 165.269387 
L 173.441618 165.131209 
L 173.531926 167.175816 
L 173.622233 165.57118 
L 173.893155 175.799579 
L 174.344691 187.180278 
L 174.434998 187.523639 
L 174.525305 189.000686 
L 174.70592 201.469571 
L 174.796227 201.515946 
L 174.886534 197.424598 
L 175.067149 182.658685 
L 175.247763 191.693 
L 175.518685 198.820081 
L 175.608992 199.721145 
L 175.970221 206.396249 
L 176.060529 206.740183 
L 176.33145 203.588144 
L 176.421757 203.386387 
L 176.873294 212.038071 
L 177.053908 202.267906 
L 177.234523 199.854338 
L 177.415137 201.687001 
L 177.956981 216.482848 
L 178.137595 218.305614 
L 178.227902 220.231098 
L 178.31821 226.376923 
L 178.408517 225.844504 
L 178.498824 226.522291 
L 178.679439 223.527216 
L 178.860053 218.101049 
L 179.401897 225.143374 
L 179.672818 213.748629 
L 179.763126 212.841257 
L 179.853433 213.326193 
L 180.214662 220.995866 
L 180.304969 220.401601 
L 180.485584 227.661831 
L 180.666198 240.715843 
L 180.846812 263.506278 
L 181.298349 281.105761 
L 181.388656 280.479326 
L 181.56927 290.784357 
L 181.659578 291.72849 
L 181.840192 295.488 
L 182.020807 293.989427 
L 182.111114 295.486667 
L 182.201421 295.025184 
L 182.472343 277.640135 
L 182.56265 278.203739 
L 182.652957 276.940582 
L 182.833572 272.271355 
L 182.923879 272.474841 
L 183.104494 270.865383 
L 183.194801 271.494455 
L 183.285108 270.727257 
L 183.375415 270.852478 
L 183.465723 271.377773 
L 184.278488 211.117031 
L 184.368795 208.104733 
L 184.910639 269.689279 
L 185.000946 268.820461 
L 185.271867 259.603755 
L 185.542789 256.313708 
L 185.723404 258.012192 
L 186.17494 253.048134 
L 186.355554 235.884863 
L 186.445862 236.052617 
L 186.807091 225.943971 
L 187.078012 213.491211 
L 187.258627 211.055426 
L 187.439241 202.874227 
L 187.529549 203.739445 
L 187.619856 203.444277 
L 187.710163 202.61966 
L 188.071392 208.67772 
L 188.252007 204.647749 
L 188.432621 188.461392 
L 188.613236 186.889858 
L 188.703543 189.50222 
L 189.064772 187.801292 
L 189.155079 187.799387 
L 189.245386 187.233128 
L 189.606615 172.23195 
L 189.696922 169.655802 
L 189.78723 170.006014 
L 189.877537 170.912261 
L 190.058151 169.623626 
L 190.148459 168.950019 
L 190.238766 167.050243 
L 190.41938 155.403473 
L 190.690302 160.506467 
L 191.051531 169.130896 
L 191.232146 167.032698 
L 191.593375 179.906412 
L 191.683682 178.859846 
L 191.864296 175.928358 
L 192.135218 163.84546 
L 192.225525 162.798977 
L 192.315833 162.982033 
L 192.40614 163.679517 
L 192.677062 160.037365 
L 192.857676 162.366035 
L 192.947983 162.075883 
L 193.128598 164.72728 
L 193.580134 151.972623 
L 194.03167 145.028374 
L 194.302592 147.568239 
L 194.573514 140.143687 
L 194.663821 140.341266 
L 194.844435 141.233342 
L 195.115357 147.338922 
L 195.295972 143.959564 
L 195.476586 141.919144 
L 195.657201 143.287525 
L 195.747508 143.871805 
L 196.01843 143.122838 
L 196.108737 142.864689 
L 196.379659 137.830043 
L 196.469966 136.411336 
L 196.740888 140.600615 
L 197.011809 137.579952 
L 197.102117 137.695476 
L 197.192424 138.016599 
L 197.553653 141.810688 
L 197.64396 141.987271 
L 197.824575 139.424148 
L 198.095496 134.266951 
L 198.547032 128.074349 
L 198.727647 122.726022 
L 198.908261 122.666425 
L 199.179183 119.350102 
L 199.26949 119.056309 
L 199.630719 121.189138 
L 199.811334 116.367559 
L 199.901641 116.395466 
L 200.082256 118.119249 
L 200.26287 115.299241 
L 200.533792 116.038662 
L 200.624099 116.944311 
L 200.714406 115.518021 
L 200.985328 102.418814 
L 201.25625 99.924331 
L 201.346557 99.992356 
L 201.527172 99.870249 
L 201.798093 100.6554 
L 201.978708 99.415042 
L 202.339937 90.859697 
L 202.430244 92.01232 
L 202.610859 92.778845 
L 202.701166 92.809689 
L 203.062395 96.513796 
L 203.152702 97.179395 
L 203.423624 95.293742 
L 203.513931 94.800749 
L 203.87516 97.356138 
L 203.965467 97.215757 
L 204.236389 96.740817 
L 204.417003 96.395944 
L 204.507311 96.936962 
L 204.597618 95.394607 
L 204.778232 97.486173 
L 204.958847 98.970595 
L 205.049154 98.661318 
L 205.139461 98.784379 
L 205.229769 99.218144 
L 205.320076 100.621641 
L 205.410383 99.883941 
L 205.590998 96.987544 
L 205.861919 99.25897 
L 205.952227 98.993196 
L 206.132841 98.562926 
L 206.223148 96.074697 
L 206.313456 96.467825 
L 206.403763 96.872157 
L 206.584377 100.08734 
L 206.674685 100.541335 
L 206.764992 98.530927 
L 207.126221 100.823997 
L 207.216528 100.766747 
L 207.306835 100.695091 
L 207.397142 100.391578 
L 207.48745 101.301743 
L 207.577757 99.804797 
L 207.758371 102.688062 
L 207.848679 102.627988 
L 208.029293 103.609202 
L 208.1196 102.945893 
L 208.209908 103.05577 
L 208.300215 103.810014 
L 208.480829 98.987772 
L 208.571137 98.010504 
L 208.661444 98.043196 
L 208.751751 97.864069 
L 208.842058 97.422692 
L 208.932366 95.407642 
L 209.11298 97.078603 
L 209.293595 98.752277 
L 209.383902 98.67672 
L 209.564516 98.351082 
L 209.654824 98.623872 
L 209.835438 100.420522 
L 210.016053 104.941923 
L 210.286974 100.061453 
L 210.377282 99.273389 
L 210.467589 99.497602 
L 210.648203 98.755873 
L 210.828818 97.21818 
L 210.919125 97.588227 
L 211.280354 102.718088 
L 211.551276 100.870425 
L 211.641583 103.608289 
L 211.822197 113.382154 
L 212.002812 114.370312 
L 212.093119 114.30437 
L 212.183426 114.601944 
L 212.364041 117.193851 
L 212.454348 116.964781 
L 212.634963 118.450897 
L 212.905884 120.481533 
L 213.176806 116.330803 
L 213.357421 115.241782 
L 213.628342 119.036448 
L 213.71865 120.960267 
L 213.808957 120.772193 
L 213.899264 120.574346 
L 214.170186 117.85819 
L 214.260493 116.493125 
L 214.441108 119.960292 
L 214.621722 118.920495 
L 214.712029 118.995894 
L 215.253873 122.374223 
L 215.615102 116.725064 
L 215.795716 117.115697 
L 216.156945 112.0925 
L 216.33756 112.76177 
L 216.518174 111.833886 
L 216.789096 109.643441 
L 216.879403 110.699001 
L 216.96971 110.350465 
L 217.150325 108.822217 
L 217.240632 109.181331 
L 217.511554 111.769041 
L 217.96309 106.486529 
L 218.143705 103.617314 
L 218.234012 103.275289 
L 218.504934 99.916941 
L 218.775855 101.632328 
L 218.866163 101.644787 
L 219.046777 98.771575 
L 219.317699 99.953589 
L 219.588621 103.81628 
L 219.678928 105.729678 
L 219.859542 103.536234 
L 220.040157 105.611665 
L 220.130464 105.861705 
L 220.401386 103.249911 
L 220.491693 103.209495 
L 220.582 103.528232 
L 220.762615 98.942266 
L 220.852922 99.690935 
L 221.57538 94.83744 
L 221.665687 95.910667 
L 221.755994 98.383317 
L 221.846302 98.080075 
L 221.936609 97.817557 
L 222.026916 96.374909 
L 222.207531 96.811588 
L 222.297838 96.970762 
L 222.56876 99.034009 
L 222.659067 99.497438 
L 222.839681 97.925966 
L 223.110603 95.88829 
L 223.381525 99.493829 
L 223.652447 97.108617 
L 223.742754 96.677597 
L 223.923368 97.234268 
L 224.013676 97.193301 
L 224.19429 107.12331 
L 224.374905 101.448402 
L 224.555519 103.031261 
L 224.645826 102.905763 
L 224.916748 100.697159 
L 225.18767 93.197173 
L 225.368284 103.285518 
L 225.548899 93.740254 
L 225.639206 93.310983 
L 225.81982 95.610235 
L 226.181049 91.246529 
L 226.271357 91.166656 
L 226.361664 91.73534 
L 226.451971 91.592841 
L 227.355044 83.207661 
L 227.896887 86.053211 
L 228.077502 86.110776 
L 228.167809 86.392188 
L 228.348423 87.453462 
L 228.438731 87.17309 
L 228.79996 82.822387 
L 228.890267 82.685436 
L 228.980574 82.986455 
L 229.161189 84.909093 
L 229.251496 85.639051 
L 229.43211 84.271171 
L 229.522417 84.670067 
L 229.793339 82.416473 
L 229.883646 82.156023 
L 230.064261 81.022556 
L 230.154568 81.522127 
L 230.244875 81.360808 
L 230.515797 79.033924 
L 230.696412 75.697987 
L 230.786719 74.668322 
L 230.877026 75.888107 
L 230.967333 75.711105 
L 231.328562 69.558198 
L 231.509177 72.56511 
L 231.780099 71.987506 
L 231.870406 71.708149 
L 231.960713 71.737985 
L 232.05102 71.749524 
L 232.141328 72.072014 
L 232.231635 72.920417 
L 232.321942 72.770674 
L 232.412249 72.459637 
L 232.683171 70.247205 
L 232.773478 70.419479 
L 232.863786 70.281157 
L 233.0444 71.490738 
L 233.225015 71.241042 
L 233.315322 70.288141 
L 233.857165 72.885497 
L 234.03778 75.153907 
L 234.308701 77.33364 
L 234.399009 77.004549 
L 234.579623 75.645041 
L 234.66993 75.848866 
L 234.850545 77.32265 
L 235.031159 78.78752 
L 235.392388 74.908302 
L 235.66331 77.337313 
L 236.024539 75.211839 
L 236.205154 75.001272 
L 236.566383 76.707767 
L 236.746997 75.596102 
L 237.017919 76.237966 
L 237.108226 76.204074 
L 237.198533 76.546383 
L 237.379148 79.112568 
L 237.469455 78.821817 
L 237.559762 78.179647 
L 238.101606 80.546762 
L 238.462835 79.44597 
L 238.553142 79.558732 
L 238.643449 80.259119 
L 238.824064 78.065881 
L 239.004678 80.175353 
L 239.185293 79.08049 
L 239.365907 79.530889 
L 239.817443 78.374558 
L 239.907751 78.736941 
L 240.178672 81.301148 
L 240.359287 81.057144 
L 240.630209 79.343174 
L 240.991438 76.677506 
L 241.172052 76.929592 
L 241.442974 77.536321 
L 241.623588 77.350118 
L 241.713896 77.432934 
L 241.89451 78.159737 
L 241.984817 78.071268 
L 242.255739 77.002848 
L 242.526661 76.566061 
L 242.797583 78.605416 
L 242.978197 77.712603 
L 243.068504 77.791674 
L 243.339426 80.743838 
L 243.700655 79.163359 
L 243.790962 79.033128 
L 243.971577 80.020338 
L 244.242498 79.188537 
L 244.423113 79.498303 
L 244.51342 79.391314 
L 244.964956 81.293993 
L 245.145571 82.175346 
L 245.235878 82.286507 
L 245.326185 83.000193 
L 245.5068 82.541881 
L 245.687414 82.94694 
L 245.868029 83.728808 
L 246.048643 82.767894 
L 246.229258 81.562087 
L 246.771101 83.085981 
L 246.861409 83.661492 
L 247.042023 83.105664 
L 247.222638 81.418168 
L 247.403252 80.840203 
L 247.583866 79.895016 
L 247.764481 79.980024 
L 247.945095 80.739745 
L 248.035403 80.846799 
L 248.396632 82.997817 
L 248.757861 81.784345 
L 248.938475 81.747023 
L 249.028782 81.808942 
L 249.209397 83.93584 
L 249.480319 84.519759 
L 249.570626 84.501254 
L 249.75124 83.507406 
L 250.112469 85.075471 
L 250.383391 83.84363 
L 250.564006 83.252144 
L 250.834927 84.88888 
L 251.286464 85.782404 
L 251.376771 85.727957 
L 251.467078 85.909184 
L 251.738 85.2367 
L 251.828307 85.260894 
L 252.099229 86.986265 
L 252.279843 87.795968 
L 252.550765 86.538354 
L 252.821687 86.273681 
L 253.002301 86.400144 
L 253.36353 87.374066 
L 253.634452 86.280481 
L 253.724759 86.35047 
L 253.995681 86.801229 
L 254.085988 86.782513 
L 254.447217 85.206946 
L 254.808446 83.002951 
L 254.898753 83.039291 
L 255.169675 82.821135 
L 255.259982 82.807073 
L 255.440597 83.610104 
L 255.711519 83.135947 
L 255.801826 82.269444 
L 255.892133 82.347804 
L 256.163055 82.424544 
L 256.253362 82.289003 
L 256.433976 81.284814 
L 256.614591 81.394858 
L 257.066127 80.703543 
L 257.246742 80.625816 
L 257.427356 80.939359 
L 257.607971 80.642112 
L 257.878892 80.650291 
L 258.240121 81.60139 
L 258.60135 83.707277 
L 258.691658 83.32381 
L 258.872272 82.982939 
L 259.323808 82.011465 
L 259.414116 81.883924 
L 259.59473 82.255899 
L 259.775345 82.184476 
L 259.955959 82.818113 
L 260.046266 82.8075 
L 260.497803 84.64174 
L 260.678417 85.593744 
L 260.768724 85.388329 
L 260.859031 85.21829 
L 261.039646 83.876941 
L 261.310568 83.902896 
L 261.581489 84.523661 
L 262.033026 83.679128 
L 262.303947 85.221097 
L 262.394255 84.907963 
L 262.574869 84.233642 
L 262.665176 84.2952 
L 262.755484 84.424956 
L 262.936098 84.230031 
L 263.026405 84.289459 
L 263.20702 84.958433 
L 263.658556 87.187947 
L 263.839171 85.684226 
L 263.929478 85.823198 
L 264.019785 86.240397 
L 264.561629 84.164073 
L 264.83255 82.698562 
L 265.013165 82.974111 
L 265.103472 82.938148 
L 265.284086 83.563088 
L 265.555008 84.662478 
L 265.735623 84.414335 
L 265.82593 84.747783 
L 265.916237 84.721226 
L 266.096852 85.438969 
L 266.187159 85.931675 
L 266.458081 84.508308 
L 266.638695 84.514692 
L 266.999924 84.85166 
L 267.270846 85.648899 
L 267.361153 85.173813 
L 267.45146 85.321202 
L 267.812689 86.636595 
L 267.993304 86.829148 
L 268.44484 89.064209 
L 268.535147 88.890148 
L 268.715762 88.474703 
L 268.806069 88.566347 
L 269.076991 87.975381 
L 269.167298 88.166541 
L 269.257605 88.680877 
L 269.347913 88.649782 
L 269.889756 85.440665 
L 270.160678 85.750238 
L 270.341292 85.520968 
L 270.431599 85.334889 
L 270.702521 85.788346 
L 270.883136 85.397816 
L 271.154057 84.465676 
L 271.334672 85.683955 
L 271.515286 85.248463 
L 271.695901 84.18563 
L 271.786208 84.185585 
L 271.966823 85.242497 
L 272.147437 86.660561 
L 272.237744 86.62124 
L 272.598973 85.096212 
L 272.960202 84.382092 
L 273.321431 84.546398 
L 273.502046 83.9114 
L 273.592353 84.003318 
L 274.043889 85.046575 
L 274.134196 85.135973 
L 274.405118 84.102803 
L 274.856654 83.889156 
L 275.127576 84.330399 
L 275.579112 83.130767 
L 275.940341 81.802736 
L 276.30157 80.353734 
L 276.572492 79.752249 
L 276.843414 80.465814 
L 276.933721 80.483973 
L 277.204643 78.898932 
L 277.385257 77.658521 
L 277.475565 77.28988 
L 277.565872 77.313193 
L 277.656179 77.368243 
L 277.927101 79.096982 
L 278.649559 75.882849 
L 278.830173 76.2611 
L 279.010788 75.933008 
L 279.372017 76.733412 
L 279.552631 76.379469 
L 279.642938 76.506527 
L 279.91386 77.313573 
L 280.004167 77.413993 
L 280.184782 79.114799 
L 280.455704 78.967747 
L 280.546011 79.15615 
L 280.636318 79.040423 
L 280.816933 79.300116 
L 280.90724 79.748723 
L 280.997547 79.725756 
L 281.268469 78.816732 
L 281.990927 82.391249 
L 282.081234 82.414331 
L 282.171541 82.599156 
L 282.352156 83.367869 
L 282.53277 83.217279 
L 282.803692 83.490616 
L 282.984306 83.237542 
L 283.164921 83.710436 
L 283.345535 84.446193 
L 283.435843 84.414595 
L 283.616457 83.612662 
L 283.797072 82.275281 
L 283.887379 82.345163 
L 283.977686 82.093068 
L 284.158301 80.72611 
L 284.429222 81.518519 
L 284.700144 82.073485 
L 284.790451 82.526671 
L 284.880759 82.379812 
L 285.15168 81.152236 
L 285.241988 81.069605 
L 285.422602 81.294244 
L 285.603217 81.779935 
L 285.964446 81.936449 
L 286.235367 83.162115 
L 286.325675 82.386628 
L 286.415982 83.06925 
L 286.686904 82.24021 
L 286.777211 82.155632 
L 287.048133 82.9752 
L 287.499669 81.443888 
L 287.680283 81.339144 
L 287.77059 81.58446 
L 287.951205 82.383018 
L 288.131819 82.306867 
L 288.312434 81.494524 
L 288.493048 80.096991 
L 288.673663 78.707315 
L 288.76397 78.77068 
L 288.854277 78.855535 
L 289.034892 75.838212 
L 289.215506 72.487077 
L 289.396121 71.41795 
L 289.667043 71.269786 
L 289.937964 69.367503 
L 290.208886 64.497829 
L 290.479808 61.088345 
L 290.570115 60.965307 
L 290.841037 61.20778 
L 291.38288 60.505696 
L 291.653802 60.637464 
L 291.834416 60.445566 
L 291.924724 60.307756 
L 292.015031 60.438537 
L 292.105338 60.059235 
L 292.195645 60.081039 
L 292.737489 59.210272 
L 292.827796 59.233435 
L 293.008411 59.68681 
L 293.189025 58.737023 
L 293.550254 58.685179 
L 293.911483 57.890207 
L 294.092098 57.499831 
L 294.363019 57.822219 
L 294.453327 57.879798 
L 294.814556 57.51013 
L 294.99517 57.883361 
L 295.717628 59.909216 
L 295.898243 60.133705 
L 296.078857 59.933765 
L 296.349779 60.157374 
L 296.530393 59.860109 
L 296.711008 59.478317 
L 297.072237 61.653563 
L 297.162544 61.731339 
L 297.252851 61.622448 
L 297.343158 61.701366 
L 297.523773 62.980646 
L 297.885002 62.783253 
L 298.065616 61.931843 
L 298.336538 62.626773 
L 298.426845 62.621551 
L 298.697767 61.718196 
L 298.788074 61.772743 
L 299.058996 62.965357 
L 299.420225 61.984177 
L 299.60084 61.918431 
L 299.691147 62.087148 
L 299.871761 61.990614 
L 299.962069 61.943665 
L 300.142683 61.468344 
L 300.23299 61.567295 
L 300.594219 62.579913 
L 300.684526 62.653778 
L 300.955448 61.426461 
L 301.045755 61.612784 
L 301.316677 61.966903 
L 301.406984 61.812868 
L 301.677906 62.712614 
L 301.858521 62.974479 
L 302.310057 62.163724 
L 302.8519 63.152419 
L 303.303437 62.624924 
L 303.484051 63.048604 
L 303.754973 62.212925 
L 304.025895 62.78912 
L 304.296816 65.238136 
L 304.387124 65.168137 
L 304.658045 65.374964 
L 304.748353 65.425086 
L 304.928967 64.99722 
L 305.019274 64.510377 
L 305.199889 64.768391 
L 305.561118 64.846084 
L 305.651425 64.842864 
L 305.741732 64.618491 
L 305.832039 64.697663 
L 306.012654 65.411356 
L 306.102961 65.267613 
L 306.283576 65.297748 
L 306.46419 65.278691 
L 306.554497 65.328882 
L 306.825419 65.707154 
L 307.186648 65.17264 
L 307.45757 65.933408 
L 307.547877 65.935332 
L 307.728492 66.805664 
L 307.909106 71.736688 
L 308.089721 72.081743 
L 308.180028 71.982277 
L 308.270335 72.158953 
L 308.360642 72.095066 
L 308.721871 71.929549 
L 308.902486 71.132613 
L 309.0831 71.330838 
L 309.263715 70.878045 
L 309.354022 70.975046 
L 309.444329 71.372595 
L 309.715251 74.031076 
L 309.895865 74.609186 
L 310.07648 74.100277 
L 310.257094 73.529045 
L 310.528016 73.536653 
L 310.979552 73.246034 
L 311.160167 73.168634 
L 311.250474 72.109287 
L 311.431089 67.501404 
L 311.792318 64.901854 
L 311.882625 64.836569 
L 312.063239 65.533449 
L 312.243854 64.390491 
L 312.334161 64.481462 
L 312.514776 64.14337 
L 312.785697 60.689668 
L 313.056619 60.534713 
L 313.146926 60.536173 
L 313.327541 60.135093 
L 313.508155 59.231312 
L 313.598463 59.085946 
L 313.779077 57.928772 
L 313.869384 58.128727 
L 314.140306 60.396511 
L 314.32092 60.224787 
L 314.682149 60.627883 
L 314.862764 61.334668 
L 315.133686 63.90905 
L 315.223993 63.906728 
L 315.404607 63.389756 
L 315.585222 63.486082 
L 315.856144 62.844209 
L 315.946451 62.730135 
L 316.217373 63.970143 
L 316.30768 63.905068 
L 316.488294 63.167251 
L 316.578602 63.083641 
L 316.849523 62.206377 
L 317.030138 62.5894 
L 317.30106 63.696216 
L 317.481674 63.800482 
L 317.662289 63.867061 
L 318.204132 62.793014 
L 318.384746 62.776887 
L 319.107204 63.545711 
L 319.197512 63.504671 
L 319.378126 63.092167 
L 319.468433 63.50669 
L 319.739355 65.256867 
L 320.010277 65.970118 
L 320.461813 65.74101 
L 320.55212 65.816356 
L 320.642428 65.643337 
L 321.003657 63.469496 
L 321.5455 64.247682 
L 321.726115 65.208531 
L 321.906729 64.935776 
L 322.177651 63.822333 
L 322.358265 63.754236 
L 322.53888 63.944976 
L 322.719494 63.731807 
L 322.900109 63.519322 
L 323.080723 63.566803 
L 323.17103 63.874039 
L 323.441952 63.088719 
L 323.712874 62.805004 
L 323.803181 62.856921 
L 324.074103 62.374169 
L 324.796561 60.239495 
L 324.977175 60.382884 
L 325.15779 60.031084 
L 325.338404 59.923774 
L 325.519019 59.555828 
L 325.609326 59.42249 
L 325.789941 58.842614 
L 325.880248 58.821758 
L 326.15117 58.346787 
L 326.512399 58.398117 
L 326.693013 58.32053 
L 326.78332 58.122524 
L 326.873628 58.180804 
L 327.054242 58.096682 
L 327.7767 57.408292 
L 328.047622 58.350332 
L 328.228236 58.504277 
L 328.408851 57.80259 
L 328.499158 57.841752 
L 328.77008 56.125397 
L 329.40223 55.880585 
L 329.582845 55.934392 
L 329.853767 56.100862 
L 330.305303 55.724953 
L 330.485917 55.786877 
L 330.666532 55.254625 
L 331.298683 55.165056 
L 331.38899 55.27882 
L 331.479297 55.644528 
L 331.569604 55.600106 
L 331.750219 55.71121 
L 331.840526 55.832346 
L 332.111448 55.406443 
L 332.201755 55.342093 
L 332.382369 55.577929 
L 332.653291 56.025905 
L 332.924213 55.979102 
L 333.195135 55.87193 
L 333.466056 55.788438 
L 333.646671 55.755556 
L 333.827285 55.874696 
L 334.0079 55.950654 
L 334.549743 55.194058 
L 334.730358 55.358593 
L 335.362509 54.917861 
L 335.723738 55.040932 
L 336.355888 56.570593 
L 336.897732 56.665168 
L 337.258961 56.793613 
L 337.529882 56.716025 
L 337.981419 56.836309 
L 338.162033 56.150662 
L 338.342648 54.506945 
L 338.613569 53.925025 
L 338.794184 53.933893 
L 338.974798 54.214159 
L 339.516642 54.024898 
L 339.877871 54.059288 
L 340.329407 53.788598 
L 340.87125 53.65904 
L 341.322787 54.032803 
L 341.774323 54.231156 
L 342.045245 54.196198 
L 342.767703 54.293083 
L 343.219239 54.798105 
L 343.399853 54.676218 
L 343.670775 54.563072 
L 343.85139 54.573205 
L 344.302926 55.460974 
L 344.573848 55.509039 
L 344.664155 55.535459 
L 344.844769 55.445989 
L 345.205998 56.076452 
L 345.47692 55.849376 
L 345.838149 56.163129 
L 346.018763 56.115433 
L 346.199378 56.140417 
L 346.831529 56.679287 
L 347.012143 57.265903 
L 347.192758 57.225752 
L 347.553987 57.93942 
L 347.734601 59.816454 
L 347.915216 59.928688 
L 348.09583 60.024357 
L 348.276445 59.83662 
L 348.547366 61.208357 
L 348.727981 61.297474 
L 348.908595 61.405061 
L 348.998903 61.450949 
L 349.179517 62.319346 
L 349.450439 62.991935 
L 349.631053 63.030655 
L 350.082589 63.501607 
L 350.172897 63.381744 
L 350.263204 63.321462 
L 350.353511 63.482608 
L 350.895355 66.071501 
L 351.075969 65.980083 
L 351.346891 64.288796 
L 351.617813 66.074185 
L 351.70812 66.082489 
L 351.888734 65.909149 
L 352.340271 68.618122 
L 352.520885 70.090397 
L 352.7015 70.45664 
L 352.882114 70.275714 
L 353.243343 72.738942 
L 353.33365 72.788829 
L 353.514265 72.355182 
L 353.785186 72.661033 
L 353.965801 72.644744 
L 354.056108 72.825843 
L 354.32703 73.778965 
L 354.417337 73.554235 
L 354.597952 72.522304 
L 354.688259 72.426549 
L 355.139795 74.035065 
L 355.410717 73.795143 
L 355.681639 73.326157 
L 355.771946 73.233339 
L 355.95256 73.829277 
L 356.042868 73.764649 
L 356.223482 74.185135 
L 356.404097 74.847039 
L 356.494404 74.538047 
L 356.765326 75.923633 
L 356.94594 76.734217 
L 357.036247 76.713843 
L 357.307169 77.573272 
L 357.578091 78.63166 
L 357.758705 77.983103 
L 358.390856 79.1832 
L 358.57147 78.963742 
L 358.842392 77.96467 
L 359.023007 77.668693 
L 359.203621 77.387434 
L 359.56485 76.477893 
L 359.835772 78.251783 
L 359.926079 77.936039 
L 360.016386 78.084876 
L 360.197001 79.355621 
L 360.287308 79.337493 
L 360.738844 78.031102 
L 360.919459 78.275376 
L 361.009766 78.338823 
L 361.100073 78.81294 
L 361.190381 78.742605 
L 361.370995 78.769352 
L 361.641917 78.261555 
L 362.635296 81.694986 
L 362.906218 81.296243 
L 363.17714 81.561115 
L 363.538369 83.409203 
L 363.628676 83.454837 
L 363.809291 83.295534 
L 364.260827 84.568626 
L 364.441441 84.395374 
L 364.712363 85.03502 
L 364.892978 84.446652 
L 365.254207 85.527942 
L 365.434821 84.828205 
L 365.525128 84.970894 
L 365.79605 86.500372 
L 365.976665 85.65827 
L 366.066972 85.842766 
L 366.157279 86.069964 
L 366.428201 87.961867 
L 366.518508 87.846893 
L 366.970044 88.788681 
L 367.42158 90.160782 
L 367.782809 90.195067 
L 367.963424 90.784326 
L 368.144038 92.37699 
L 368.234346 92.490919 
L 368.324653 92.424798 
L 368.595575 91.216579 
L 368.685882 91.546448 
L 368.866496 93.029619 
L 368.956804 93.105544 
L 369.047111 92.889149 
L 369.318033 93.718505 
L 369.498647 95.533228 
L 369.588954 95.396515 
L 369.769569 94.386513 
L 369.859876 94.67427 
L 370.040491 95.708441 
L 370.221105 95.282984 
L 370.311412 94.825236 
L 370.492027 95.148554 
L 370.582334 95.242656 
L 370.762949 94.419767 
L 370.943563 93.823444 
L 371.124178 94.094939 
L 371.304792 94.3422 
L 371.395099 94.290456 
L 371.666021 91.395761 
L 371.846635 92.077779 
L 371.936943 91.787521 
L 372.298172 88.623142 
L 372.569093 87.759807 
L 372.659401 87.751324 
L 372.840015 87.444784 
L 373.02063 88.309109 
L 373.201244 89.246813 
L 373.291551 89.274687 
L 373.381859 89.13219 
L 373.562473 89.599815 
L 373.833395 88.649459 
L 374.104317 90.91321 
L 374.284931 90.486375 
L 374.64616 89.394706 
L 374.917082 87.563123 
L 375.188004 86.905081 
L 375.368618 87.482959 
L 375.458925 87.691963 
L 375.729847 87.527702 
L 376.091076 88.42712 
L 376.361998 87.34996 
L 376.632919 85.736778 
L 376.723227 85.695599 
L 376.994148 84.794416 
L 377.084456 84.840439 
L 377.174763 84.858812 
L 377.355377 84.376079 
L 377.535992 83.25521 
L 377.806914 80.812074 
L 377.897221 80.535832 
L 377.987528 80.604666 
L 378.077835 80.650323 
L 378.168143 80.838918 
L 378.439064 82.203065 
L 378.529372 82.17285 
L 378.709986 81.714566 
L 378.800293 81.821809 
L 378.980908 80.697264 
L 379.071215 80.730615 
L 379.161522 81.074167 
L 379.522751 80.358212 
L 379.703366 80.412786 
L 380.154902 78.470425 
L 380.516131 79.808968 
L 380.787053 80.015601 
L 381.057974 80.404377 
L 381.148282 80.389202 
L 381.328896 79.572971 
L 381.780432 78.769061 
L 381.961047 79.146485 
L 382.141661 78.831167 
L 382.864119 74.454557 
L 383.405963 73.72124 
L 383.767192 74.407346 
L 383.947806 74.122228 
L 384.218728 74.356067 
L 385.1218 72.34417 
L 385.302415 71.542034 
L 385.483029 71.19521 
L 385.663644 71.516594 
L 385.844258 71.377158 
L 386.024873 70.979655 
L 386.205487 69.412717 
L 386.476409 69.728174 
L 386.566716 69.837246 
L 386.657024 69.523037 
L 386.837638 67.789039 
L 387.10856 68.019157 
L 387.469789 66.013019 
L 387.560096 65.973352 
L 387.921325 66.704632 
L 388.011632 66.533575 
L 388.10194 66.742666 
L 388.192247 66.673884 
L 388.282554 66.404154 
L 388.553476 64.699702 
L 388.73409 64.634885 
L 389.185627 62.616556 
L 389.275934 62.804526 
L 389.366241 62.730141 
L 389.546855 62.365836 
L 389.817777 62.870743 
L 389.998392 62.635057 
L 390.088699 63.12629 
L 390.179006 63.029647 
L 390.359621 60.573156 
L 390.630542 59.827529 
L 390.72085 59.839851 
L 390.901464 60.557363 
L 391.172386 60.2103 
L 391.262693 60.260531 
L 391.443308 60.857218 
L 392.075458 56.661554 
L 392.34638 56.351211 
L 392.526995 56.617116 
L 392.617302 56.516303 
L 392.707609 56.235994 
L 392.888224 56.618779 
L 392.978531 56.951875 
L 393.159145 56.488702 
L 393.33976 56.515555 
L 393.700989 56.306938 
L 394.062218 56.595057 
L 394.333139 56.041912 
L 394.694368 56.265514 
L 394.784676 56.253945 
L 394.96529 57.013545 
L 395.416826 58.263218 
L 395.507134 58.202778 
L 395.868363 57.591241 
L 396.319899 57.246003 
L 396.410206 57.354788 
L 396.590821 57.254209 
L 396.681128 57.624213 
L 396.771435 57.527622 
L 397.222971 56.793539 
L 397.403586 56.996057 
L 397.674508 57.387468 
L 397.855122 57.493994 
L 398.126044 57.826217 
L 398.216351 57.266008 
L 398.396965 55.369372 
L 398.487273 55.379387 
L 398.487273 55.379387 
" clip-path="url(#peb59ad6495)" style="fill: none; stroke: #1f77b4; stroke-width: 1.5; stroke-linecap: square"/>
   </g>
   <g id="patch_3">
    <path d="M 57.6 307.584 
L 57.6 41.472 
" style="fill: none; stroke: #000000; stroke-width: 0.8; stroke-linejoin: miter; stroke-linecap: square"/>
   </g>
   <g id="patch_4">
    <path d="M 414.72 307.584 
L 414.72 41.472 
" style="fill: none; stroke: #000000; stroke-width: 0.8; stroke-linejoin: miter; stroke-linecap: square"/>
   </g>
   <g id="patch_5">
    <path d="M 57.6 307.584 
L 414.72 307.584 
" style="fill: none; stroke: #000000; stroke-width: 0.8; stroke-linejoin: miter; stroke-linecap: square"/>
   </g>
   <g id="patch_6">
    <path d="M 57.6 41.472 
L 414.72 41.472 
" style="fill: none; stroke: #000000; stroke-width: 0.8; stroke-linejoin: miter; stroke-linecap: square"/>
   </g>
  </g>
 </g>
 <defs>
  <clipPath id="peb59ad6495">
   <rect x="57.6" y="41.472" width="357.12" height="266.112"/>
  </clipPath>
 </defs>
</svg>
