<?xml version="1.0" encoding="utf-8" standalone="no"?>
<!DOCTYPE svg PUBLIC "-//W3C//DTD SVG 1.1//EN"
  "http://www.w3.org/Graphics/SVG/1.1/DTD/svg11.dtd">
<svg xmlns:xlink="http://www.w3.org/1999/xlink" width="460.8pt" height="345.6pt" viewBox="0 0 460.8 345.6" xmlns="http://www.w3.org/2000/svg" version="1.1">
 <metadata>
  <rdf:RDF xmlns:dc="http://purl.org/dc/elements/1.1/" xmlns:cc="http://creativecommons.org/ns#" xmlns:rdf="http://www.w3.org/1999/02/22-rdf-syntax-ns#">
   <cc:Work>
    <dc:type rdf:resource="http://purl.org/dc/dcmitype/StillImage"/>
    <dc:date>2025-10-20T16:30:13.968902</dc:date>
    <dc:format>image/svg+xml</dc:format>
    <dc:creator>
     <cc:Agent>
      <dc:title>Matplotlib v3.10.7, https://matplotlib.org/</dc:title>
     </cc:Agent>
    </dc:creator>
   </cc:Work>
  </rdf:RDF>
 </metadata>
 <defs>
  <style type="text/css">*{stroke-linejoin: round; stroke-linecap: butt}</style>
 </defs>
 <g id="figure_1">
  <g id="patch_1">
   <path d="M 0 345.6 
L 460.8 345.6 
L 460.8 0 
L 0 0 
z
" style="fill: #ffffff"/>
  </g>
  <g id="axes_1">
   <g id="patch_2">
    <path d="M 57.6 307.584 
L 414.72 307.584 
L 414.72 41.472 
L 57.6 41.472 
z
" style="fill: #ffffff"/>
   </g>
   <g id="matplotlib.axis_1">
    <g id="xtick_1">
     <g id="line2d_1">
      <defs>
       <path id="mcfbf7d00bf" d="M 0 0 
L 0 3.5 
" style="stroke: #000000; stroke-width: 0.8"/>
      </defs>
      <g>
       <use xlink:href="#mcfbf7d00bf" x="73.832727" y="307.584" style="stroke: #000000; stroke-width: 0.8"/>
      </g>
     </g>
     <g id="text_1">
      <!-- 0 -->
      <g transform="translate(70.651477 322.182437) scale(0.1 -0.1)">
       <defs>
        <path id="DejaVuSans-30" d="M 2034 4250 
Q 1547 4250 1301 3770 
Q 1056 3291 1056 2328 
Q 1056 1369 1301 889 
Q 1547 409 2034 409 
Q 2525 409 2770 889 
Q 3016 1369 3016 2328 
Q 3016 3291 2770 3770 
Q 2525 4250 2034 4250 
z
M 2034 4750 
Q 2819 4750 3233 4129 
Q 3647 3509 3647 2328 
Q 3647 1150 3233 529 
Q 2819 -91 2034 -91 
Q 1250 -91 836 529 
Q 422 1150 422 2328 
Q 422 3509 836 4129 
Q 1250 4750 2034 4750 
z
" transform="scale(0.015625)"/>
       </defs>
       <use xlink:href="#DejaVuSans-30"/>
      </g>
     </g>
    </g>
    <g id="xtick_2">
     <g id="line2d_2">
      <g>
       <use xlink:href="#mcfbf7d00bf" x="118.98635" y="307.584" style="stroke: #000000; stroke-width: 0.8"/>
      </g>
     </g>
     <g id="text_2">
      <!-- 500 -->
      <g transform="translate(109.4426 322.182437) scale(0.1 -0.1)">
       <defs>
        <path id="DejaVuSans-35" d="M 691 4666 
L 3169 4666 
L 3169 4134 
L 1269 4134 
L 1269 2991 
Q 1406 3038 1543 3061 
Q 1681 3084 1819 3084 
Q 2600 3084 3056 2656 
Q 3513 2228 3513 1497 
Q 3513 744 3044 326 
Q 2575 -91 1722 -91 
Q 1428 -91 1123 -41 
Q 819 9 494 109 
L 494 744 
Q 775 591 1075 516 
Q 1375 441 1709 441 
Q 2250 441 2565 725 
Q 2881 1009 2881 1497 
Q 2881 1984 2565 2268 
Q 2250 2553 1709 2553 
Q 1456 2553 1204 2497 
Q 953 2441 691 2322 
L 691 4666 
z
" transform="scale(0.015625)"/>
       </defs>
       <use xlink:href="#DejaVuSans-35"/>
       <use xlink:href="#DejaVuSans-30" transform="translate(63.623047 0)"/>
       <use xlink:href="#DejaVuSans-30" transform="translate(127.246094 0)"/>
      </g>
     </g>
    </g>
    <g id="xtick_3">
     <g id="line2d_3">
      <g>
       <use xlink:href="#mcfbf7d00bf" x="164.139972" y="307.584" style="stroke: #000000; stroke-width: 0.8"/>
      </g>
     </g>
     <g id="text_3">
      <!-- 1000 -->
      <g transform="translate(151.414972 322.182437) scale(0.1 -0.1)">
       <defs>
        <path id="DejaVuSans-31" d="M 794 531 
L 1825 531 
L 1825 4091 
L 703 3866 
L 703 4441 
L 1819 4666 
L 2450 4666 
L 2450 531 
L 3481 531 
L 3481 0 
L 794 0 
L 794 531 
z
" transform="scale(0.015625)"/>
       </defs>
       <use xlink:href="#DejaVuSans-31"/>
       <use xlink:href="#DejaVuSans-30" transform="translate(63.623047 0)"/>
       <use xlink:href="#DejaVuSans-30" transform="translate(127.246094 0)"/>
       <use xlink:href="#DejaVuSans-30" transform="translate(190.869141 0)"/>
      </g>
     </g>
    </g>
    <g id="xtick_4">
     <g id="line2d_4">
      <g>
       <use xlink:href="#mcfbf7d00bf" x="209.293595" y="307.584" style="stroke: #000000; stroke-width: 0.8"/>
      </g>
     </g>
     <g id="text_4">
      <!-- 1500 -->
      <g transform="translate(196.568595 322.182437) scale(0.1 -0.1)">
       <use xlink:href="#DejaVuSans-31"/>
       <use xlink:href="#DejaVuSans-35" transform="translate(63.623047 0)"/>
       <use xlink:href="#DejaVuSans-30" transform="translate(127.246094 0)"/>
       <use xlink:href="#DejaVuSans-30" transform="translate(190.869141 0)"/>
      </g>
     </g>
    </g>
    <g id="xtick_5">
     <g id="line2d_5">
      <g>
       <use xlink:href="#mcfbf7d00bf" x="254.447217" y="307.584" style="stroke: #000000; stroke-width: 0.8"/>
      </g>
     </g>
     <g id="text_5">
      <!-- 2000 -->
      <g transform="translate(241.722217 322.182437) scale(0.1 -0.1)">
       <defs>
        <path id="DejaVuSans-32" d="M 1228 531 
L 3431 531 
L 3431 0 
L 469 0 
L 469 531 
Q 828 903 1448 1529 
Q 2069 2156 2228 2338 
Q 2531 2678 2651 2914 
Q 2772 3150 2772 3378 
Q 2772 3750 2511 3984 
Q 2250 4219 1831 4219 
Q 1534 4219 1204 4116 
Q 875 4013 500 3803 
L 500 4441 
Q 881 4594 1212 4672 
Q 1544 4750 1819 4750 
Q 2544 4750 2975 4387 
Q 3406 4025 3406 3419 
Q 3406 3131 3298 2873 
Q 3191 2616 2906 2266 
Q 2828 2175 2409 1742 
Q 1991 1309 1228 531 
z
" transform="scale(0.015625)"/>
       </defs>
       <use xlink:href="#DejaVuSans-32"/>
       <use xlink:href="#DejaVuSans-30" transform="translate(63.623047 0)"/>
       <use xlink:href="#DejaVuSans-30" transform="translate(127.246094 0)"/>
       <use xlink:href="#DejaVuSans-30" transform="translate(190.869141 0)"/>
      </g>
     </g>
    </g>
    <g id="xtick_6">
     <g id="line2d_6">
      <g>
       <use xlink:href="#mcfbf7d00bf" x="299.60084" y="307.584" style="stroke: #000000; stroke-width: 0.8"/>
      </g>
     </g>
     <g id="text_6">
      <!-- 2500 -->
      <g transform="translate(286.87584 322.182437) scale(0.1 -0.1)">
       <use xlink:href="#DejaVuSans-32"/>
       <use xlink:href="#DejaVuSans-35" transform="translate(63.623047 0)"/>
       <use xlink:href="#DejaVuSans-30" transform="translate(127.246094 0)"/>
       <use xlink:href="#DejaVuSans-30" transform="translate(190.869141 0)"/>
      </g>
     </g>
    </g>
    <g id="xtick_7">
     <g id="line2d_7">
      <g>
       <use xlink:href="#mcfbf7d00bf" x="344.754462" y="307.584" style="stroke: #000000; stroke-width: 0.8"/>
      </g>
     </g>
     <g id="text_7">
      <!-- 3000 -->
      <g transform="translate(332.029462 322.182437) scale(0.1 -0.1)">
       <defs>
        <path id="DejaVuSans-33" d="M 2597 2516 
Q 3050 2419 3304 2112 
Q 3559 1806 3559 1356 
Q 3559 666 3084 287 
Q 2609 -91 1734 -91 
Q 1441 -91 1130 -33 
Q 819 25 488 141 
L 488 750 
Q 750 597 1062 519 
Q 1375 441 1716 441 
Q 2309 441 2620 675 
Q 2931 909 2931 1356 
Q 2931 1769 2642 2001 
Q 2353 2234 1838 2234 
L 1294 2234 
L 1294 2753 
L 1863 2753 
Q 2328 2753 2575 2939 
Q 2822 3125 2822 3475 
Q 2822 3834 2567 4026 
Q 2313 4219 1838 4219 
Q 1578 4219 1281 4162 
Q 984 4106 628 3988 
L 628 4550 
Q 988 4650 1302 4700 
Q 1616 4750 1894 4750 
Q 2613 4750 3031 4423 
Q 3450 4097 3450 3541 
Q 3450 3153 3228 2886 
Q 3006 2619 2597 2516 
z
" transform="scale(0.015625)"/>
       </defs>
       <use xlink:href="#DejaVuSans-33"/>
       <use xlink:href="#DejaVuSans-30" transform="translate(63.623047 0)"/>
       <use xlink:href="#DejaVuSans-30" transform="translate(127.246094 0)"/>
       <use xlink:href="#DejaVuSans-30" transform="translate(190.869141 0)"/>
      </g>
     </g>
    </g>
    <g id="xtick_8">
     <g id="line2d_8">
      <g>
       <use xlink:href="#mcfbf7d00bf" x="389.908084" y="307.584" style="stroke: #000000; stroke-width: 0.8"/>
      </g>
     </g>
     <g id="text_8">
      <!-- 3500 -->
      <g transform="translate(377.183084 322.182437) scale(0.1 -0.1)">
       <use xlink:href="#DejaVuSans-33"/>
       <use xlink:href="#DejaVuSans-35" transform="translate(63.623047 0)"/>
       <use xlink:href="#DejaVuSans-30" transform="translate(127.246094 0)"/>
       <use xlink:href="#DejaVuSans-30" transform="translate(190.869141 0)"/>
      </g>
     </g>
    </g>
   </g>
   <g id="matplotlib.axis_2">
    <g id="ytick_1">
     <g id="line2d_9">
      <defs>
       <path id="m3235790490" d="M 0 0 
L -3.5 0 
" style="stroke: #000000; stroke-width: 0.8"/>
      </defs>
      <g>
       <use xlink:href="#m3235790490" x="57.6" y="281.236431" style="stroke: #000000; stroke-width: 0.8"/>
      </g>
     </g>
     <g id="text_9">
      <!-- 8.0 -->
      <g transform="translate(34.696875 285.03565) scale(0.1 -0.1)">
       <defs>
        <path id="DejaVuSans-38" d="M 2034 2216 
Q 1584 2216 1326 1975 
Q 1069 1734 1069 1313 
Q 1069 891 1326 650 
Q 1584 409 2034 409 
Q 2484 409 2743 651 
Q 3003 894 3003 1313 
Q 3003 1734 2745 1975 
Q 2488 2216 2034 2216 
z
M 1403 2484 
Q 997 2584 770 2862 
Q 544 3141 544 3541 
Q 544 4100 942 4425 
Q 1341 4750 2034 4750 
Q 2731 4750 3128 4425 
Q 3525 4100 3525 3541 
Q 3525 3141 3298 2862 
Q 3072 2584 2669 2484 
Q 3125 2378 3379 2068 
Q 3634 1759 3634 1313 
Q 3634 634 3220 271 
Q 2806 -91 2034 -91 
Q 1263 -91 848 271 
Q 434 634 434 1313 
Q 434 1759 690 2068 
Q 947 2378 1403 2484 
z
M 1172 3481 
Q 1172 3119 1398 2916 
Q 1625 2713 2034 2713 
Q 2441 2713 2670 2916 
Q 2900 3119 2900 3481 
Q 2900 3844 2670 4047 
Q 2441 4250 2034 4250 
Q 1625 4250 1398 4047 
Q 1172 3844 1172 3481 
z
" transform="scale(0.015625)"/>
        <path id="DejaVuSans-2e" d="M 684 794 
L 1344 794 
L 1344 0 
L 684 0 
L 684 794 
z
" transform="scale(0.015625)"/>
       </defs>
       <use xlink:href="#DejaVuSans-38"/>
       <use xlink:href="#DejaVuSans-2e" transform="translate(63.623047 0)"/>
       <use xlink:href="#DejaVuSans-30" transform="translate(95.410156 0)"/>
      </g>
     </g>
    </g>
    <g id="ytick_2">
     <g id="line2d_10">
      <g>
       <use xlink:href="#m3235790490" x="57.6" y="224.306194" style="stroke: #000000; stroke-width: 0.8"/>
      </g>
     </g>
     <g id="text_10">
      <!-- 8.5 -->
      <g transform="translate(34.696875 228.105413) scale(0.1 -0.1)">
       <use xlink:href="#DejaVuSans-38"/>
       <use xlink:href="#DejaVuSans-2e" transform="translate(63.623047 0)"/>
       <use xlink:href="#DejaVuSans-35" transform="translate(95.410156 0)"/>
      </g>
     </g>
    </g>
    <g id="ytick_3">
     <g id="line2d_11">
      <g>
       <use xlink:href="#m3235790490" x="57.6" y="167.375957" style="stroke: #000000; stroke-width: 0.8"/>
      </g>
     </g>
     <g id="text_11">
      <!-- 9.0 -->
      <g transform="translate(34.696875 171.175176) scale(0.1 -0.1)">
       <defs>
        <path id="DejaVuSans-39" d="M 703 97 
L 703 672 
Q 941 559 1184 500 
Q 1428 441 1663 441 
Q 2288 441 2617 861 
Q 2947 1281 2994 2138 
Q 2813 1869 2534 1725 
Q 2256 1581 1919 1581 
Q 1219 1581 811 2004 
Q 403 2428 403 3163 
Q 403 3881 828 4315 
Q 1253 4750 1959 4750 
Q 2769 4750 3195 4129 
Q 3622 3509 3622 2328 
Q 3622 1225 3098 567 
Q 2575 -91 1691 -91 
Q 1453 -91 1209 -44 
Q 966 3 703 97 
z
M 1959 2075 
Q 2384 2075 2632 2365 
Q 2881 2656 2881 3163 
Q 2881 3666 2632 3958 
Q 2384 4250 1959 4250 
Q 1534 4250 1286 3958 
Q 1038 3666 1038 3163 
Q 1038 2656 1286 2365 
Q 1534 2075 1959 2075 
z
" transform="scale(0.015625)"/>
       </defs>
       <use xlink:href="#DejaVuSans-39"/>
       <use xlink:href="#DejaVuSans-2e" transform="translate(63.623047 0)"/>
       <use xlink:href="#DejaVuSans-30" transform="translate(95.410156 0)"/>
      </g>
     </g>
    </g>
    <g id="ytick_4">
     <g id="line2d_12">
      <g>
       <use xlink:href="#m3235790490" x="57.6" y="110.44572" style="stroke: #000000; stroke-width: 0.8"/>
      </g>
     </g>
     <g id="text_12">
      <!-- 9.5 -->
      <g transform="translate(34.696875 114.244939) scale(0.1 -0.1)">
       <use xlink:href="#DejaVuSans-39"/>
       <use xlink:href="#DejaVuSans-2e" transform="translate(63.623047 0)"/>
       <use xlink:href="#DejaVuSans-35" transform="translate(95.410156 0)"/>
      </g>
     </g>
    </g>
    <g id="ytick_5">
     <g id="line2d_13">
      <g>
       <use xlink:href="#m3235790490" x="57.6" y="53.515483" style="stroke: #000000; stroke-width: 0.8"/>
      </g>
     </g>
     <g id="text_13">
      <!-- 10.0 -->
      <g transform="translate(28.334375 57.314702) scale(0.1 -0.1)">
       <use xlink:href="#DejaVuSans-31"/>
       <use xlink:href="#DejaVuSans-30" transform="translate(63.623047 0)"/>
       <use xlink:href="#DejaVuSans-2e" transform="translate(127.246094 0)"/>
       <use xlink:href="#DejaVuSans-30" transform="translate(159.033203 0)"/>
      </g>
     </g>
    </g>
    <g id="text_14">
     <!-- 1e−6+9.9999e−1 -->
     <g transform="translate(57.6 38.472) scale(0.1 -0.1)">
      <defs>
       <path id="DejaVuSans-65" d="M 3597 1894 
L 3597 1613 
L 953 1613 
Q 991 1019 1311 708 
Q 1631 397 2203 397 
Q 2534 397 2845 478 
Q 3156 559 3463 722 
L 3463 178 
Q 3153 47 2828 -22 
Q 2503 -91 2169 -91 
Q 1331 -91 842 396 
Q 353 884 353 1716 
Q 353 2575 817 3079 
Q 1281 3584 2069 3584 
Q 2775 3584 3186 3129 
Q 3597 2675 3597 1894 
z
M 3022 2063 
Q 3016 2534 2758 2815 
Q 2500 3097 2075 3097 
Q 1594 3097 1305 2825 
Q 1016 2553 972 2059 
L 3022 2063 
z
" transform="scale(0.015625)"/>
       <path id="DejaVuSans-2212" d="M 678 2272 
L 4684 2272 
L 4684 1741 
L 678 1741 
L 678 2272 
z
" transform="scale(0.015625)"/>
       <path id="DejaVuSans-36" d="M 2113 2584 
Q 1688 2584 1439 2293 
Q 1191 2003 1191 1497 
Q 1191 994 1439 701 
Q 1688 409 2113 409 
Q 2538 409 2786 701 
Q 3034 994 3034 1497 
Q 3034 2003 2786 2293 
Q 2538 2584 2113 2584 
z
M 3366 4563 
L 3366 3988 
Q 3128 4100 2886 4159 
Q 2644 4219 2406 4219 
Q 1781 4219 1451 3797 
Q 1122 3375 1075 2522 
Q 1259 2794 1537 2939 
Q 1816 3084 2150 3084 
Q 2853 3084 3261 2657 
Q 3669 2231 3669 1497 
Q 3669 778 3244 343 
Q 2819 -91 2113 -91 
Q 1303 -91 875 529 
Q 447 1150 447 2328 
Q 447 3434 972 4092 
Q 1497 4750 2381 4750 
Q 2619 4750 2861 4703 
Q 3103 4656 3366 4563 
z
" transform="scale(0.015625)"/>
       <path id="DejaVuSans-2b" d="M 2944 4013 
L 2944 2272 
L 4684 2272 
L 4684 1741 
L 2944 1741 
L 2944 0 
L 2419 0 
L 2419 1741 
L 678 1741 
L 678 2272 
L 2419 2272 
L 2419 4013 
L 2944 4013 
z
" transform="scale(0.015625)"/>
      </defs>
      <use xlink:href="#DejaVuSans-31"/>
      <use xlink:href="#DejaVuSans-65" transform="translate(63.623047 0)"/>
      <use xlink:href="#DejaVuSans-2212" transform="translate(125.146484 0)"/>
      <use xlink:href="#DejaVuSans-36" transform="translate(208.935547 0)"/>
      <use xlink:href="#DejaVuSans-2b" transform="translate(272.558594 0)"/>
      <use xlink:href="#DejaVuSans-39" transform="translate(356.347656 0)"/>
      <use xlink:href="#DejaVuSans-2e" transform="translate(419.970703 0)"/>
      <use xlink:href="#DejaVuSans-39" transform="translate(451.757812 0)"/>
      <use xlink:href="#DejaVuSans-39" transform="translate(515.380859 0)"/>
      <use xlink:href="#DejaVuSans-39" transform="translate(579.003906 0)"/>
      <use xlink:href="#DejaVuSans-39" transform="translate(642.626953 0)"/>
      <use xlink:href="#DejaVuSans-65" transform="translate(706.25 0)"/>
      <use xlink:href="#DejaVuSans-2212" transform="translate(767.773438 0)"/>
      <use xlink:href="#DejaVuSans-31" transform="translate(851.5625 0)"/>
     </g>
    </g>
   </g>
   <g id="line2d_14">
    <path d="M 73.832727 57.541741 
L 74.013342 59.807768 
L 74.103649 59.625331 
L 74.193956 58.261594 
L 74.284263 58.66228 
L 74.464878 61.182516 
L 74.645492 56.241682 
L 74.7358 56.285124 
L 74.826107 56.186042 
L 75.097029 57.164326 
L 75.36795 55.670872 
L 75.458258 56.027469 
L 75.638872 57.028843 
L 75.819487 56.41228 
L 76.090408 62.091777 
L 76.180716 62.154606 
L 76.36133 58.270413 
L 76.451637 58.505657 
L 76.812866 62.033201 
L 77.083788 60.069673 
L 77.264403 60.214353 
L 77.535324 61.958317 
L 77.896553 59.745497 
L 77.986861 59.879082 
L 78.257782 60.915901 
L 78.438397 65.862712 
L 78.528704 66.261657 
L 78.619011 66.198443 
L 78.709318 66.103568 
L 78.889933 65.33394 
L 78.98024 65.295341 
L 79.070547 64.726958 
L 79.251162 64.940814 
L 79.341469 64.829547 
L 79.431776 64.140127 
L 79.612391 66.55059 
L 79.702698 66.646756 
L 79.793005 64.826151 
L 79.883313 65.199483 
L 79.97362 64.956349 
L 80.063927 64.287259 
L 80.154234 64.772751 
L 80.515463 63.948835 
L 80.696078 64.918893 
L 80.876692 66.571839 
L 81.328229 66.683052 
L 81.689458 74.104911 
L 81.779765 75.250273 
L 81.870072 75.059408 
L 82.231301 73.000421 
L 82.411916 72.992472 
L 82.502223 72.46455 
L 83.676217 54.588688 
L 83.856831 54.391585 
L 84.037446 54.352783 
L 84.21806 54.298441 
L 84.308368 54.261877 
L 84.488982 54.95389 
L 84.759904 58.397427 
L 85.21144 65.077525 
L 85.301747 65.558209 
L 85.482362 58.395146 
L 85.572669 58.260802 
L 85.662976 58.882643 
L 85.843591 64.065836 
L 86.114513 64.729263 
L 86.295127 64.118104 
L 86.566049 64.488038 
L 86.836971 63.671547 
L 87.1982 61.996229 
L 87.378814 57.549387 
L 87.740043 56.741598 
L 88.010965 59.251544 
L 88.101272 59.05147 
L 88.462501 58.416466 
L 88.643115 58.491331 
L 88.82373 58.261704 
L 88.914037 58.208661 
L 89.004344 58.479525 
L 89.365573 61.819715 
L 89.455881 62.039627 
L 89.997724 60.639755 
L 90.268646 59.809445 
L 90.44926 59.788247 
L 90.539568 59.692478 
L 91.081411 60.837339 
L 91.262026 58.64939 
L 91.623255 58.1536 
L 91.803869 57.056771 
L 92.074791 56.171999 
L 92.165098 56.282651 
L 92.706941 58.048712 
L 92.797249 57.96753 
L 93.06817 57.512575 
L 93.248785 57.281847 
L 93.339092 57.294551 
L 93.429399 57.462494 
L 93.790628 56.942096 
L 93.880936 56.991934 
L 94.151857 56.80733 
L 94.242165 56.878825 
L 94.693701 56.579857 
L 94.784008 56.610053 
L 94.874315 56.372319 
L 94.964623 56.411915 
L 95.235544 57.382399 
L 95.325852 57.331986 
L 95.596773 55.887636 
L 95.777388 53.86377 
L 96.228924 53.91563 
L 97.402918 54.019214 
L 97.764147 53.776473 
L 98.125376 53.752489 
L 98.396298 53.637119 
L 98.66722 53.568602 
L 99.389678 53.641729 
L 99.841214 53.72957 
L 100.653979 53.698283 
L 100.834594 53.647137 
L 101.105515 53.670429 
L 101.195822 53.720336 
L 101.28613 53.570839 
L 101.466744 53.686412 
L 101.737666 53.587953 
L 102.008588 53.654601 
L 102.460124 53.588656 
L 103.001967 53.617213 
L 103.543811 53.71505 
L 103.90504 53.730366 
L 104.085654 53.697011 
L 104.89842 53.691454 
L 105.53057 53.766571 
L 106.343335 53.840599 
L 106.614257 54.865296 
L 106.794872 54.29704 
L 107.156101 54.483955 
L 107.336715 54.00889 
L 107.427022 54.060597 
L 107.697944 54.835457 
L 108.059173 55.79262 
L 108.239788 55.40259 
L 108.330095 54.363805 
L 108.420402 54.492662 
L 108.510709 54.548385 
L 108.691324 54.133818 
L 109.413782 53.666641 
L 111.852077 53.824652 
L 112.122999 53.823258 
L 112.303614 53.814558 
L 112.75515 53.986481 
L 113.116379 53.896963 
L 113.477608 54.04906 
L 113.658222 53.86049 
L 113.74853 53.909201 
L 114.019451 54.431428 
L 114.109759 54.501453 
L 114.200066 54.356335 
L 114.38068 53.852233 
L 114.832216 54.018177 
L 115.825596 54.044224 
L 116.006211 54.474147 
L 116.548054 54.325474 
L 116.818976 54.441631 
L 117.089898 54.390345 
L 117.541434 54.74302 
L 117.631741 54.887253 
L 117.812356 54.613593 
L 118.173585 54.576235 
L 118.354199 54.449397 
L 118.625121 54.544213 
L 119.979729 54.416214 
L 120.521573 54.62306 
L 120.792495 55.111261 
L 121.063416 54.648887 
L 121.424645 54.861337 
L 121.60526 54.765184 
L 121.695567 54.577879 
L 121.785874 54.641841 
L 122.056796 55.03285 
L 122.237411 54.813799 
L 122.418025 54.982863 
L 122.59864 55.180845 
L 124.404784 55.392733 
L 124.585399 55.525405 
L 124.675706 55.36136 
L 124.766013 54.858818 
L 124.856321 54.87956 
L 124.946628 55.034719 
L 125.036935 55.411195 
L 125.127242 55.367974 
L 125.307857 55.148476 
L 125.8497 55.448989 
L 126.030315 55.30105 
L 126.120622 55.267917 
L 126.391544 54.255896 
L 126.933387 54.679071 
L 127.023695 54.443377 
L 127.294616 56.288394 
L 127.384924 56.168026 
L 127.655845 55.286042 
L 127.746152 55.182339 
L 128.197689 55.430567 
L 128.378303 54.890768 
L 128.46861 54.8271 
L 128.649225 54.91373 
L 128.829839 54.74128 
L 129.010454 53.802227 
L 129.100761 54.014341 
L 129.281376 54.171135 
L 129.823219 53.971981 
L 130.094141 54.126925 
L 130.726292 54.226781 
L 131.177828 55.326874 
L 131.539057 54.518664 
L 131.629364 54.608949 
L 131.900286 55.071375 
L 132.261515 54.799747 
L 132.442129 54.511874 
L 132.713051 56.828318 
L 132.803358 56.524897 
L 132.983973 55.906809 
L 133.07428 56.853329 
L 133.345202 62.033121 
L 133.435509 62.268558 
L 133.525816 61.955457 
L 133.616123 62.231261 
L 133.796738 63.832248 
L 134.06766 60.132289 
L 134.157967 60.662114 
L 134.609503 63.856892 
L 134.970732 64.557745 
L 135.151347 62.215156 
L 135.331961 59.066979 
L 135.422268 59.264235 
L 135.69319 61.753025 
L 135.783497 59.283795 
L 135.873805 59.293814 
L 135.964112 59.668661 
L 136.144726 63.812368 
L 136.235034 63.7039 
L 136.505955 61.051272 
L 136.68657 65.75594 
L 136.867184 66.231386 
L 136.957491 66.319475 
L 137.047799 66.134682 
L 137.228413 64.956455 
L 137.31872 65.075764 
L 137.589642 67.223871 
L 137.860564 66.342284 
L 138.041178 67.562621 
L 138.221793 70.28309 
L 138.3121 69.963374 
L 138.402407 68.649347 
L 138.673329 82.123397 
L 138.763636 82.911052 
L 138.944251 82.255622 
L 139.215173 79.806864 
L 139.30548 80.734472 
L 139.666709 86.798494 
L 139.847323 88.459798 
L 140.118245 87.14508 
L 140.479474 100.796528 
L 140.750396 97.486961 
L 140.93101 99.528953 
L 141.021317 100.303918 
L 141.201932 106.552918 
L 141.472854 104.086471 
L 141.653468 104.322514 
L 141.743775 101.396292 
L 141.834083 101.479347 
L 142.014697 102.776284 
L 142.375926 91.259909 
L 142.466233 90.695623 
L 142.646848 94.928423 
L 142.91777 102.52531 
L 143.008077 101.910161 
L 143.278999 98.734759 
L 143.369306 98.548372 
L 143.730535 95.953611 
L 143.911149 97.2547 
L 144.001457 96.732455 
L 144.272378 89.771459 
L 144.452993 87.411253 
L 144.5433 87.319637 
L 144.723915 90.532825 
L 144.814222 90.421878 
L 144.994836 82.206778 
L 145.175451 81.269868 
L 145.356065 90.094652 
L 145.53668 83.62617 
L 145.626987 83.262568 
L 145.807601 79.490411 
L 145.897909 79.110244 
L 146.259138 82.241491 
L 146.349445 81.999173 
L 146.439752 78.52101 
L 146.530059 78.590704 
L 146.710674 80.053165 
L 146.891288 77.335004 
L 146.981596 77.099108 
L 147.252517 78.113554 
L 147.523439 72.980476 
L 147.613746 72.788509 
L 147.704054 73.195725 
L 147.884668 81.914352 
L 147.974975 81.70167 
L 148.336204 85.490385 
L 148.516819 85.189654 
L 148.697433 80.761379 
L 149.239277 84.324558 
L 149.329584 84.009839 
L 149.690813 80.048135 
L 149.78112 80.245037 
L 149.871427 79.930629 
L 150.052042 76.710306 
L 150.322964 71.043057 
L 150.413271 72.127311 
L 150.503578 64.730187 
L 150.593885 65.979192 
L 150.7745 62.878698 
L 151.316343 60.915346 
L 151.496958 57.932819 
L 151.587265 58.134617 
L 151.76788 59.317129 
L 151.948494 57.646807 
L 152.038801 57.573457 
L 152.129109 57.832959 
L 152.40003 56.857989 
L 152.490338 56.024935 
L 152.580645 56.215631 
L 152.670952 56.705999 
L 152.851567 55.712706 
L 153.032181 56.546208 
L 153.664332 80.072782 
L 153.754639 81.231215 
L 154.206175 63.378526 
L 154.477097 65.045172 
L 154.748019 69.750716 
L 154.838326 69.559467 
L 155.109248 65.193987 
L 155.199555 65.244654 
L 155.470477 66.709493 
L 155.922013 67.606967 
L 156.01232 70.914409 
L 156.192935 86.577263 
L 156.644471 77.603705 
L 156.734778 56.677702 
L 156.825085 57.152252 
L 157.0057 58.935673 
L 157.276622 57.824704 
L 157.366929 57.840375 
L 157.457236 58.27251 
L 157.547543 58.24553 
L 157.728158 58.078475 
L 157.818465 58.221943 
L 157.99908 60.121811 
L 158.089387 60.088385 
L 158.270001 59.715464 
L 158.540923 62.73082 
L 158.721537 59.132842 
L 158.811845 59.118755 
L 158.992459 60.236196 
L 159.263381 59.281918 
L 159.353688 58.608615 
L 159.534303 60.405278 
L 159.714917 58.220819 
L 160.166453 58.656476 
L 160.347068 59.315793 
L 160.437375 58.898103 
L 160.61799 57.664749 
L 160.798604 57.966587 
L 160.888911 57.834295 
L 160.979219 57.564963 
L 161.069526 57.839624 
L 161.25014 58.705746 
L 161.340448 58.546304 
L 161.521062 56.851511 
L 161.791984 59.456995 
L 161.972598 60.659585 
L 162.062906 60.607729 
L 162.24352 60.072269 
L 162.424135 59.8357 
L 162.695056 60.627899 
L 162.875671 59.787081 
L 162.965978 59.987814 
L 163.146592 61.210191 
L 163.327207 60.907834 
L 163.417514 60.501428 
L 163.598129 61.136129 
L 163.778743 60.584914 
L 163.959358 61.061107 
L 164.049665 61.559125 
L 164.139972 61.397783 
L 164.230279 61.005953 
L 164.320587 61.044299 
L 164.501201 61.987506 
L 164.591508 61.879285 
L 164.681816 61.55448 
L 164.772123 61.587097 
L 164.952737 62.474266 
L 165.043045 62.341925 
L 165.223659 61.475769 
L 165.404274 62.067352 
L 165.494581 62.120934 
L 165.675195 58.847558 
L 165.765503 58.698426 
L 166.307346 61.151297 
L 166.487961 61.543074 
L 166.668575 61.33096 
L 166.758882 62.045573 
L 166.939497 68.389835 
L 167.120111 63.524759 
L 167.391033 65.332295 
L 167.48134 65.210767 
L 167.661955 67.233153 
L 167.932876 62.652228 
L 168.113491 65.044335 
L 168.294105 67.158445 
L 168.47472 65.797831 
L 168.565027 66.236164 
L 168.745642 68.006886 
L 168.835949 68.217161 
L 169.016563 66.219929 
L 169.106871 66.997043 
L 169.287485 65.922765 
L 169.377792 66.004876 
L 169.558407 66.869067 
L 169.739021 65.594386 
L 170.009943 68.152874 
L 170.10025 67.905244 
L 170.190558 66.685528 
L 170.280865 66.862551 
L 170.551787 71.609523 
L 170.913016 67.316363 
L 171.003323 67.501363 
L 171.183937 68.734973 
L 171.364552 67.735128 
L 171.725781 72.467322 
L 171.906395 71.545754 
L 172.177317 73.010741 
L 172.357931 75.573754 
L 172.538546 78.351108 
L 172.809468 79.897918 
L 172.899775 79.658816 
L 172.990082 77.807498 
L 173.170697 66.344853 
L 173.71254 61.738831 
L 173.802847 61.637805 
L 173.983462 59.156547 
L 174.073769 59.225214 
L 174.254384 62.302977 
L 174.344691 62.242703 
L 174.434998 62.08773 
L 174.525305 61.032252 
L 174.615613 61.64345 
L 174.70592 61.58443 
L 174.886534 60.118097 
L 174.976842 60.306869 
L 175.157456 61.208563 
L 175.338071 60.029114 
L 175.518685 58.727873 
L 175.789607 59.665651 
L 176.060529 65.099281 
L 176.150836 64.385757 
L 176.241143 63.484861 
L 176.692679 66.36641 
L 176.782986 66.783362 
L 176.963601 66.140569 
L 177.053908 66.297496 
L 177.32483 68.142246 
L 177.415137 68.09816 
L 177.595752 66.588865 
L 177.866673 72.733563 
L 177.956981 72.422745 
L 178.047288 72.205893 
L 178.137595 72.825893 
L 178.227902 72.54319 
L 178.408517 71.694822 
L 178.498824 71.503984 
L 178.679439 70.136297 
L 178.860053 66.147946 
L 179.040668 59.919145 
L 179.130975 59.734986 
L 179.221282 57.954545 
L 179.311589 58.855086 
L 179.582511 64.175053 
L 179.763126 66.57698 
L 179.853433 65.975074 
L 179.94374 66.048551 
L 180.034047 66.61417 
L 180.124355 65.96439 
L 180.214662 66.116773 
L 180.304969 66.892273 
L 180.395276 66.837831 
L 180.485584 59.418724 
L 180.575891 60.891763 
L 180.666198 61.666619 
L 180.756505 61.30839 
L 180.93712 57.590689 
L 181.027427 57.129901 
L 181.208041 61.923171 
L 181.388656 67.277368 
L 181.478963 67.420089 
L 181.56927 67.169768 
L 181.659578 67.319965 
L 181.749885 67.749428 
L 181.840192 67.592143 
L 181.930499 67.666825 
L 182.020807 68.349666 
L 182.201421 73.059748 
L 182.291728 73.941995 
L 182.472343 68.34735 
L 182.56265 67.866563 
L 182.652957 70.540396 
L 182.743265 69.950682 
L 182.923879 66.817482 
L 183.375415 69.223018 
L 183.465723 69.121832 
L 183.55603 68.793978 
L 183.646337 69.109003 
L 183.826952 68.787727 
L 184.007566 69.603649 
L 184.188181 68.705632 
L 184.278488 68.54706 
L 184.368795 69.12197 
L 184.639717 65.147407 
L 184.730024 66.184758 
L 185.000946 78.830381 
L 185.091253 78.213494 
L 185.271867 67.374068 
L 185.542789 74.697216 
L 185.813711 72.768976 
L 185.904018 73.26621 
L 186.265247 71.346499 
L 186.355554 72.340714 
L 186.536169 70.244436 
L 186.626476 70.47317 
L 186.807091 72.376762 
L 186.897398 71.640483 
L 187.258627 62.625555 
L 187.348934 63.072913 
L 187.529549 59.988717 
L 187.619856 60.419855 
L 187.890778 66.38964 
L 187.981085 66.110842 
L 188.342314 61.286394 
L 188.432621 61.95043 
L 188.613236 64.38655 
L 188.884157 63.331624 
L 188.974465 63.798581 
L 189.064772 63.026689 
L 189.245386 66.042647 
L 189.335694 65.867803 
L 189.696922 63.140663 
L 189.967844 63.69423 
L 190.238766 63.053645 
L 190.329073 63.166811 
L 190.599995 64.804919 
L 190.690302 64.791949 
L 190.870917 67.20183 
L 191.232146 60.811082 
L 191.322453 60.827435 
L 191.41276 61.11095 
L 191.503067 61.861788 
L 191.683682 65.259048 
L 191.773989 65.240704 
L 192.225525 62.600226 
L 192.40614 63.229202 
L 192.677062 62.172544 
L 192.767369 62.191015 
L 193.218905 63.233581 
L 193.39952 65.179267 
L 193.580134 68.736771 
L 193.670441 68.524225 
L 193.760749 67.106601 
L 193.851056 67.414342 
L 194.212285 70.405357 
L 194.302592 73.791494 
L 194.392899 73.69939 
L 194.483206 73.798006 
L 194.754128 74.756909 
L 195.115357 76.490675 
L 195.386279 79.801835 
L 195.476586 79.441091 
L 195.657201 76.936527 
L 195.837815 76.329361 
L 196.01843 74.542738 
L 196.108737 74.552104 
L 196.199044 75.340755 
L 196.379659 74.966786 
L 196.740888 76.628191 
L 197.011809 77.763302 
L 197.282731 82.666336 
L 197.373038 82.419815 
L 197.553653 82.550631 
L 197.734267 81.843709 
L 197.824575 81.837925 
L 198.005189 81.342017 
L 198.276111 79.912032 
L 198.366418 80.198361 
L 198.547032 77.278687 
L 198.63734 77.145445 
L 198.817954 74.860015 
L 198.998569 72.354626 
L 199.088876 72.891528 
L 199.179183 72.804257 
L 199.26949 72.37079 
L 199.359798 72.445371 
L 199.450105 72.19686 
L 199.540412 72.429987 
L 199.721027 71.652072 
L 200.082256 70.462456 
L 200.443485 72.047562 
L 200.895021 68.989614 
L 200.985328 68.580793 
L 201.165943 69.432001 
L 201.346557 71.156289 
L 201.436864 71.1002 
L 201.798093 70.587455 
L 201.978708 70.703499 
L 202.159322 71.403236 
L 202.339937 71.4642 
L 202.430244 71.447456 
L 202.701166 71.688888 
L 202.88178 70.695723 
L 202.972087 70.195402 
L 203.062395 68.689203 
L 203.243009 56.802956 
L 203.423624 55.654861 
L 203.784853 56.38622 
L 203.87516 56.256342 
L 203.965467 55.995762 
L 204.055774 55.395562 
L 204.236389 53.836899 
L 204.417003 53.867967 
L 204.687925 54.290776 
L 204.86854 54.151088 
L 205.229769 54.139701 
L 205.320076 54.023246 
L 205.681305 64.305143 
L 205.861919 65.151549 
L 205.952227 65.207968 
L 206.132841 65.714789 
L 206.313456 64.998196 
L 206.403763 64.884506 
L 206.584377 66.185306 
L 206.674685 65.757049 
L 206.764992 66.190731 
L 206.855299 68.230609 
L 207.035914 75.611897 
L 207.216528 77.133201 
L 207.397142 76.436261 
L 207.668064 75.354908 
L 207.758371 75.215856 
L 207.938986 76.427495 
L 208.209908 77.985384 
L 208.300215 77.528301 
L 208.390522 76.440886 
L 208.661444 56.570381 
L 208.842058 54.575278 
L 208.932366 54.395744 
L 209.11298 53.622203 
L 210.016053 53.697906 
L 210.196667 53.915652 
L 210.377282 53.956549 
L 210.557896 53.711791 
L 210.828818 53.863721 
L 211.009432 53.989611 
L 211.280354 53.679426 
L 211.370661 53.657498 
L 211.822197 54.017159 
L 212.002812 53.7971 
L 212.364041 54.020717 
L 212.544655 53.994517 
L 212.72527 54.672594 
L 212.905884 55.579237 
L 212.996192 55.548047 
L 213.447728 54.685243 
L 213.71865 54.606805 
L 213.989571 54.630101 
L 214.170186 54.292082 
L 214.441108 54.370394 
L 214.621722 54.473188 
L 214.802337 54.267433 
L 215.163566 54.296982 
L 215.434487 54.410752 
L 215.615102 54.328203 
L 215.886024 54.445822 
L 215.976331 54.566627 
L 216.156945 54.388506 
L 216.33756 54.540691 
L 216.698789 54.096195 
L 217.060018 54.184057 
L 217.330939 54.14061 
L 217.511554 54.217394 
L 218.504934 54.191643 
L 218.775855 54.418056 
L 218.95647 54.232746 
L 219.046777 54.21925 
L 219.227392 54.408941 
L 219.408006 54.186776 
L 219.94985 54.030886 
L 220.130464 54.02687 
L 220.401386 54.116616 
L 220.672307 54.051333 
L 220.943229 54.072978 
L 221.394765 54.071534 
L 221.755994 54.157192 
L 222.026916 54.198222 
L 222.388145 54.205715 
L 223.020296 54.174078 
L 223.20091 54.263903 
L 223.471832 54.087345 
L 224.284597 54.265351 
L 224.465212 54.346714 
L 224.645826 54.176359 
L 225.007055 54.291744 
L 225.277977 53.977964 
L 225.548899 54.109207 
L 225.729513 54.00818 
L 226.000435 54.085281 
L 227.716273 53.982629 
L 227.896887 54.081864 
L 228.258116 53.917117 
L 228.529038 53.953392 
L 228.890267 54.30715 
L 229.070881 54.288793 
L 229.251496 54.736888 
L 229.43211 55.047406 
L 229.703032 54.970261 
L 230.064261 54.721878 
L 230.244875 54.362897 
L 230.696412 54.344968 
L 231.057641 54.259354 
L 231.238255 54.498534 
L 231.41887 54.628728 
L 231.599484 54.450797 
L 231.780099 54.243716 
L 232.412249 54.418527 
L 232.592864 54.386837 
L 232.863786 54.777414 
L 233.225015 54.433922 
L 233.405629 54.493782 
L 233.676551 54.386778 
L 233.766858 54.396841 
L 233.947472 56.452517 
L 234.128087 58.724398 
L 234.218394 58.680568 
L 234.760238 56.762551 
L 235.121467 57.297303 
L 235.392388 57.55706 
L 235.66331 58.605155 
L 235.843925 57.855497 
L 236.024539 58.237303 
L 236.385768 72.751496 
L 236.476075 72.72685 
L 237.017919 71.097581 
L 237.198533 71.081851 
L 237.288841 70.961582 
L 237.559762 69.775271 
L 237.65007 69.912743 
L 237.740377 69.938287 
L 237.920991 70.151331 
L 238.101606 69.782778 
L 238.191913 69.030409 
L 238.28222 69.129259 
L 238.462835 70.685855 
L 238.553142 70.050955 
L 238.643449 68.059459 
L 238.824064 59.132635 
L 239.004678 58.047757 
L 239.185293 59.394461 
L 239.456214 61.746566 
L 239.546522 61.942505 
L 239.727136 60.769296 
L 239.998058 62.059418 
L 240.26898 61.024106 
L 240.449594 60.791553 
L 240.720516 62.830413 
L 240.991438 62.395041 
L 241.081745 62.480393 
L 241.172052 62.967785 
L 241.442974 79.064272 
L 241.623588 81.056907 
L 241.713896 80.856129 
L 242.075125 78.127961 
L 242.255739 80.795636 
L 242.346046 82.900678 
L 242.436354 82.849004 
L 242.526661 81.120634 
L 242.707275 83.231961 
L 242.797583 83.136935 
L 243.249119 81.49751 
L 243.339426 81.633382 
L 243.700655 87.736971 
L 243.971577 88.777928 
L 244.242498 92.492476 
L 244.332806 91.455147 
L 244.603727 83.842892 
L 244.694035 84.061997 
L 244.874649 87.589039 
L 245.055264 86.830916 
L 245.145571 88.400876 
L 245.235878 88.339305 
L 245.5068 85.263955 
L 245.597107 85.484655 
L 245.868029 89.000276 
L 246.048643 90.354085 
L 246.229258 87.101349 
L 246.409872 78.371347 
L 246.590487 79.138618 
L 246.861409 74.570322 
L 247.042023 71.51001 
L 247.13233 73.21019 
L 247.403252 84.785697 
L 247.493559 84.779098 
L 247.854788 70.012215 
L 248.035403 71.963188 
L 248.216017 68.995295 
L 248.396632 70.107646 
L 248.486939 69.949612 
L 248.757861 67.867642 
L 248.848168 67.653725 
L 249.11909 68.403866 
L 249.209397 68.21544 
L 249.299704 68.074865 
L 249.570626 68.493143 
L 249.660933 68.29397 
L 249.75124 67.375408 
L 249.931855 61.669218 
L 250.112469 61.415824 
L 250.202777 59.961401 
L 250.383391 61.205144 
L 250.473698 60.391796 
L 250.654313 60.692035 
L 250.74462 60.62846 
L 250.834927 61.36179 
L 251.105849 59.695016 
L 251.196156 59.77456 
L 251.286464 59.508125 
L 251.647693 66.399538 
L 251.738 65.141164 
L 251.828307 65.187155 
L 252.099229 70.127275 
L 252.279843 71.117292 
L 252.460458 66.658022 
L 252.550765 67.349544 
L 252.641072 68.37614 
L 252.821687 71.761636 
L 252.911994 71.054926 
L 253.092608 68.670209 
L 253.36353 72.198043 
L 253.634452 73.793741 
L 253.815066 74.490834 
L 253.905374 74.323322 
L 253.995681 74.234427 
L 254.085988 75.349579 
L 254.176295 75.21401 
L 254.266603 73.767849 
L 254.35691 68.613529 
L 254.447217 69.32169 
L 254.627832 74.860464 
L 254.808446 74.486141 
L 254.898753 75.643901 
L 255.440597 92.139658 
L 255.530904 93.16663 
L 255.711519 92.842518 
L 255.892133 89.865141 
L 256.163055 100.72928 
L 256.253362 100.250577 
L 256.433976 100.70774 
L 256.614591 111.232178 
L 256.704898 109.697536 
L 256.97582 81.100963 
L 257.246742 84.161896 
L 257.427356 83.483566 
L 257.698278 87.584813 
L 257.878892 98.050456 
L 258.059507 89.549293 
L 258.330429 86.812012 
L 258.511043 87.714974 
L 258.691658 83.836837 
L 258.872272 88.350348 
L 258.962579 88.497327 
L 259.143194 86.960577 
L 259.323808 87.912731 
L 259.414116 87.935247 
L 259.504423 88.487166 
L 259.775345 94.725703 
L 259.865652 95.333399 
L 259.955959 95.053074 
L 260.046266 95.363981 
L 260.226881 101.422804 
L 260.58811 86.261927 
L 260.678417 85.692939 
L 260.859031 82.509681 
L 260.949339 82.769506 
L 261.129953 83.715675 
L 261.22026 83.107976 
L 261.400875 76.751286 
L 262.033026 106.907585 
L 262.123333 108.143481 
L 262.21364 107.96684 
L 262.484562 100.165699 
L 262.665176 98.610492 
L 262.845791 96.691636 
L 263.026405 99.384172 
L 263.20702 96.363341 
L 263.297327 96.905298 
L 263.477942 99.26454 
L 263.568249 97.339309 
L 263.658556 91.762329 
L 263.839171 76.378618 
L 264.019785 75.236478 
L 264.2004 77.164993 
L 264.381014 78.300433 
L 264.651936 76.509891 
L 264.922858 83.175004 
L 265.103472 78.140063 
L 265.284086 74.460152 
L 265.555008 68.985547 
L 265.645315 70.80333 
L 265.82593 69.425038 
L 266.006544 66.307697 
L 266.277466 67.195209 
L 266.367773 67.144131 
L 266.548388 66.077148 
L 266.638695 66.222832 
L 266.81931 66.320549 
L 266.909617 66.176978 
L 267.090231 65.468815 
L 267.270846 67.163542 
L 267.45146 69.231229 
L 267.632075 67.094796 
L 267.812689 66.457353 
L 267.993304 70.00749 
L 268.083611 68.217696 
L 268.264226 72.010392 
L 268.354533 71.874647 
L 268.44484 71.91639 
L 268.625455 73.805827 
L 268.715762 73.934373 
L 268.986684 71.367391 
L 269.076991 71.54653 
L 269.167298 71.74183 
L 269.257605 71.613977 
L 269.347913 71.779067 
L 269.618834 73.385798 
L 269.709141 72.858822 
L 269.799449 73.07069 
L 269.980063 74.314607 
L 270.07037 73.893427 
L 270.250985 71.701118 
L 270.431599 75.83796 
L 270.521907 75.55729 
L 270.612214 73.215082 
L 270.792828 62.699391 
L 270.973443 71.892579 
L 271.06375 72.780288 
L 271.154057 71.981895 
L 271.334672 69.003726 
L 271.424979 68.951841 
L 271.515286 69.058629 
L 271.786208 72.263338 
L 272.05713 68.612516 
L 272.147437 68.830195 
L 272.237744 69.357025 
L 272.328052 69.24759 
L 272.508666 69.644225 
L 272.598973 70.852514 
L 272.689281 70.361562 
L 272.869895 68.324509 
L 273.05051 71.136885 
L 273.231124 73.474109 
L 273.502046 66.736993 
L 273.68266 71.014493 
L 273.772968 71.134002 
L 274.043889 67.467707 
L 274.134196 67.620504 
L 274.314811 67.964777 
L 274.495425 68.953378 
L 274.67604 67.229109 
L 274.856654 65.125164 
L 274.946962 65.148848 
L 275.127576 65.990364 
L 275.308191 69.587265 
L 275.488805 68.552786 
L 275.66942 66.901203 
L 275.940341 62.121775 
L 276.211263 72.001794 
L 276.30157 71.203401 
L 276.391878 68.824713 
L 276.482185 69.332041 
L 276.662799 70.64452 
L 277.024028 65.623333 
L 277.114336 65.303505 
L 277.29495 67.003676 
L 277.385257 66.983884 
L 277.746486 63.882882 
L 277.927101 60.685691 
L 278.378637 58.655673 
L 278.559251 59.78473 
L 278.739866 61.046404 
L 278.92048 59.663893 
L 279.010788 59.863048 
L 279.191402 63.066565 
L 279.281709 63.157986 
L 279.462324 62.298581 
L 279.552631 62.900152 
L 279.642938 62.881985 
L 279.823553 60.67337 
L 280.004167 57.575586 
L 280.184782 58.662341 
L 280.275089 57.963691 
L 280.365396 57.984183 
L 280.546011 58.015501 
L 280.816933 57.874275 
L 280.90724 57.836367 
L 281.087854 57.431479 
L 281.629698 57.432916 
L 281.720005 57.773124 
L 281.90062 58.901301 
L 281.990927 58.517634 
L 282.171541 55.929283 
L 282.261849 56.134112 
L 282.623078 58.154162 
L 283.164921 56.123665 
L 283.255228 56.01845 
L 283.345535 56.320602 
L 283.52615 59.69996 
L 283.616457 58.919129 
L 283.797072 57.243438 
L 283.887379 55.272296 
L 283.977686 55.941418 
L 284.158301 55.495572 
L 284.248608 55.608468 
L 284.429222 56.228147 
L 284.51953 56.170613 
L 284.609837 55.712804 
L 284.700144 55.803919 
L 284.790451 56.040436 
L 284.880759 55.982908 
L 285.061373 55.946855 
L 285.15168 55.474034 
L 285.603217 56.927925 
L 285.783831 56.103402 
L 285.874138 56.245852 
L 285.964446 56.237278 
L 286.054753 56.069511 
L 286.14506 56.136594 
L 286.325675 56.753737 
L 286.506289 55.986698 
L 286.686904 55.499624 
L 286.777211 55.703914 
L 286.957825 57.350753 
L 287.228747 60.055457 
L 287.409361 59.70639 
L 287.499669 58.726517 
L 287.589976 58.924759 
L 287.77059 59.391407 
L 287.860898 59.218024 
L 288.041512 58.647928 
L 288.222127 60.366893 
L 288.402741 59.559398 
L 288.493048 59.60897 
L 288.583356 59.397174 
L 288.76397 54.318893 
L 289.034892 54.679339 
L 289.125199 54.949356 
L 289.305814 56.146178 
L 289.576735 55.840422 
L 289.75735 55.250606 
L 289.937964 56.276015 
L 290.118579 56.331557 
L 290.479808 54.943898 
L 290.570115 54.971822 
L 290.660422 55.187285 
L 290.841037 55.127292 
L 290.931344 55.063788 
L 291.202266 54.674761 
L 291.38288 54.615216 
L 291.473188 54.716412 
L 291.744109 55.784175 
L 291.834416 55.757511 
L 292.015031 54.703166 
L 292.195645 54.817668 
L 292.556874 55.410687 
L 292.827796 55.208985 
L 293.008411 55.598549 
L 293.189025 55.512271 
L 293.36964 55.572501 
L 293.459947 55.519959 
L 293.550254 55.235067 
L 293.821176 56.611198 
L 294.182405 56.100236 
L 294.363019 57.072455 
L 294.724248 61.072798 
L 295.085477 73.497643 
L 295.175785 73.89081 
L 295.266092 73.440307 
L 295.356399 73.488882 
L 295.446706 75.748664 
L 295.627321 86.368553 
L 295.717628 86.94691 
L 295.807935 86.759404 
L 295.98855 83.693215 
L 296.349779 77.446789 
L 296.440086 77.46776 
L 296.801315 80.767533 
L 296.891622 80.96164 
L 297.072237 78.37294 
L 297.523773 70.921602 
L 297.794695 72.865756 
L 297.885002 72.376666 
L 297.975309 71.954047 
L 298.155924 61.602566 
L 298.517153 58.677413 
L 298.697767 59.959579 
L 298.878382 60.894062 
L 298.968689 60.438141 
L 299.058996 59.275191 
L 299.149303 59.802657 
L 299.329918 63.945454 
L 299.420225 63.740263 
L 299.60084 62.550985 
L 299.871761 58.197927 
L 299.962069 58.627807 
L 300.052376 59.025612 
L 300.413605 58.220668 
L 300.503912 58.268322 
L 300.684526 62.026293 
L 300.774834 62.566205 
L 300.865141 62.260493 
L 301.045755 58.724529 
L 301.136063 58.872985 
L 301.22637 60.346101 
L 301.406984 65.979373 
L 301.497292 64.802062 
L 301.768213 58.934859 
L 301.948828 58.290364 
L 302.129442 58.600738 
L 302.761593 62.273857 
L 303.032515 68.62167 
L 303.122822 67.505976 
L 303.213129 64.594778 
L 303.574358 75.405623 
L 303.664666 75.245057 
L 303.84528 73.325082 
L 303.935587 71.843308 
L 304.025895 71.893484 
L 304.206509 75.122768 
L 304.296816 75.066526 
L 304.387124 75.798972 
L 304.567738 90.481311 
L 304.748353 88.901606 
L 304.83866 88.195803 
L 305.019274 83.77386 
L 305.199889 77.838116 
L 305.380503 80.292985 
L 305.561118 87.148051 
L 305.651425 88.695115 
L 305.741732 88.542219 
L 305.832039 88.579417 
L 305.922347 89.159007 
L 306.102961 97.915296 
L 306.193268 97.261105 
L 306.373883 94.328421 
L 306.644805 91.950046 
L 306.825419 89.850389 
L 307.096341 97.712648 
L 307.186648 98.701932 
L 307.367263 186.926798 
L 307.45757 191.088066 
L 307.547877 190.310639 
L 307.909106 187.806249 
L 308.089721 186.741357 
L 308.180028 188.312771 
L 308.270335 182.700137 
L 308.360642 184.339106 
L 308.631564 206.550235 
L 308.812179 217.290267 
L 308.902486 212.235936 
L 309.173408 155.699663 
L 309.263715 154.139764 
L 309.715251 173.609795 
L 309.895865 171.566939 
L 310.166787 185.88278 
L 310.347402 159.881254 
L 310.528016 185.522217 
L 310.708631 238.01159 
L 310.979552 253.827376 
L 311.06986 251.884379 
L 311.250474 253.467114 
L 311.431089 266.30357 
L 311.521396 265.734983 
L 311.611703 265.397566 
L 311.70201 271.481872 
L 311.792318 269.625313 
L 312.063239 237.797851 
L 312.243854 231.014213 
L 312.424468 266.734127 
L 312.605083 257.941527 
L 312.876005 273.388855 
L 312.966312 271.239394 
L 313.146926 258.077172 
L 313.327541 275.02751 
L 313.417848 274.719531 
L 313.598463 266.488673 
L 313.68877 268.187453 
L 313.779077 267.755419 
L 313.959691 271.618574 
L 314.140306 266.292855 
L 314.32092 289.508465 
L 314.411228 267.540807 
L 314.501535 267.721224 
L 314.682149 268.90838 
L 314.953071 295.488 
L 315.043378 294.684196 
L 315.3143 274.124555 
L 315.404607 273.493725 
L 315.675529 225.303751 
L 315.856144 171.039789 
L 315.946451 188.587744 
L 316.127065 157.336117 
L 316.30768 118.089785 
L 316.397987 122.293649 
L 316.488294 121.898464 
L 316.578602 106.630473 
L 316.668909 108.072808 
L 316.939831 150.080138 
L 317.030138 147.843633 
L 317.120445 150.09307 
L 317.30106 158.427719 
L 317.391367 156.093588 
L 317.752596 167.219648 
L 317.842903 166.73056 
L 318.023518 158.39951 
L 318.204132 166.13874 
L 318.294439 159.905156 
L 318.475054 167.429062 
L 318.655668 164.455876 
L 318.836283 170.386848 
L 318.92659 167.726299 
L 319.107204 153.079114 
L 319.287819 163.699705 
L 319.378126 172.101 
L 319.558741 214.572943 
L 319.739355 203.18305 
L 319.829662 201.630804 
L 320.100584 211.427123 
L 320.281199 210.007347 
L 320.55212 227.622705 
L 320.642428 231.795835 
L 320.823042 227.353982 
L 320.913349 227.825117 
L 321.093964 231.034001 
L 321.274578 230.383805 
L 321.364886 229.707937 
L 321.5455 232.430989 
L 321.635807 234.389962 
L 321.726115 233.432343 
L 321.906729 226.635195 
L 322.087344 234.976012 
L 322.358265 222.943242 
L 322.448573 222.784832 
L 322.53888 223.749088 
L 322.629187 206.100686 
L 322.719494 207.640443 
L 322.900109 229.151115 
L 323.080723 230.059512 
L 323.17103 228.005272 
L 323.351645 222.716268 
L 323.622567 231.913363 
L 323.712874 231.207884 
L 323.803181 232.023063 
L 324.074103 244.046386 
L 324.16441 243.819067 
L 324.254717 244.6117 
L 324.435332 233.046692 
L 324.615946 290.303171 
L 324.886868 177.31694 
L 324.977175 173.187769 
L 325.067483 173.5031 
L 325.15779 172.893102 
L 325.338404 165.592504 
L 325.428712 169.276833 
L 325.699633 186.999331 
L 325.789941 186.827193 
L 326.15117 93.000794 
L 326.241477 93.183789 
L 326.331784 94.855375 
L 326.693013 80.76866 
L 326.873628 92.446629 
L 327.144549 77.940986 
L 327.234856 79.816668 
L 327.505778 95.285347 
L 327.596085 94.502945 
L 327.7767 75.253708 
L 327.867007 74.818807 
L 328.047622 79.49704 
L 328.589465 67.097708 
L 328.860387 65.024044 
L 329.131309 59.478645 
L 329.221616 59.496942 
L 329.40223 66.751094 
L 329.492538 66.617743 
L 329.673152 58.831648 
L 329.763459 59.111124 
L 330.124688 61.004266 
L 330.666532 59.371653 
L 331.027761 56.616792 
L 331.208375 56.807721 
L 331.298683 56.764585 
L 331.38899 56.539372 
L 331.569604 54.829021 
L 331.659911 54.745227 
L 331.750219 54.841927 
L 331.930833 56.836591 
L 332.111448 56.227414 
L 332.201755 56.474426 
L 332.382369 58.804656 
L 332.833906 55.829713 
L 333.01452 56.557007 
L 333.285442 57.350391 
L 333.375749 57.398974 
L 333.556364 57.056672 
L 333.827285 56.541376 
L 334.0079 57.360103 
L 334.188514 58.395493 
L 334.369129 58.035631 
L 334.640051 57.261621 
L 334.730358 57.143675 
L 334.910972 57.69747 
L 335.181894 63.964135 
L 335.272201 64.265725 
L 335.543123 59.564203 
L 335.63343 59.836218 
L 335.904352 61.266273 
L 336.084966 61.38703 
L 336.536503 62.177524 
L 336.62681 62.040308 
L 336.807424 61.038062 
L 337.258961 61.591555 
L 337.349268 61.595143 
L 337.439575 61.472956 
L 337.62019 61.650728 
L 337.710497 61.557186 
L 337.891111 57.190402 
L 337.981419 56.906647 
L 338.432955 57.715265 
L 338.613569 58.393597 
L 338.884491 57.079944 
L 339.065106 56.736758 
L 339.336027 55.453211 
L 339.516642 56.176749 
L 339.787564 55.735846 
L 339.968178 56.723916 
L 340.148793 55.920599 
L 340.419714 55.422252 
L 340.780943 56.031455 
L 340.87125 55.778792 
L 341.142172 57.088569 
L 341.322787 55.579405 
L 341.503401 56.213902 
L 341.593708 56.083269 
L 341.774323 55.730574 
L 341.954937 55.967268 
L 342.135552 56.564623 
L 342.225859 56.530979 
L 342.316166 56.00162 
L 342.406474 56.21069 
L 342.496781 56.148344 
L 342.677395 55.216077 
L 342.767703 55.384648 
L 342.948317 57.000865 
L 343.038624 56.858596 
L 343.399853 55.548567 
L 343.580468 55.508632 
L 343.761082 55.713332 
L 343.85139 56.767178 
L 343.941697 54.130414 
L 344.122311 56.955873 
L 344.212619 56.856631 
L 344.302926 54.418819 
L 344.393233 54.471085 
L 344.573848 56.537804 
L 344.664155 56.068979 
L 344.844769 54.333262 
L 345.025384 54.313829 
L 345.205998 54.446186 
L 345.47692 59.175091 
L 345.747842 57.60252 
L 346.018763 60.302013 
L 346.109071 60.028156 
L 346.289685 58.807171 
L 346.4703 58.869715 
L 346.921836 62.069765 
L 347.012143 62.057321 
L 347.10245 61.709409 
L 347.373372 88.344363 
L 347.463679 89.46648 
L 347.553987 89.204588 
L 347.644294 88.909835 
L 347.734601 89.070939 
L 348.005523 91.525218 
L 348.366752 95.111782 
L 348.547366 94.798511 
L 348.727981 94.989339 
L 348.818288 95.543734 
L 348.998903 98.582062 
L 349.08921 106.225534 
L 349.360131 100.411194 
L 349.450439 103.50928 
L 349.540746 103.297344 
L 349.72136 99.482065 
L 349.811668 99.769978 
L 349.901975 100.533852 
L 349.992282 100.518488 
L 350.082589 100.657859 
L 350.172897 100.247231 
L 350.263204 100.417473 
L 350.443818 100.083571 
L 350.624433 98.732741 
L 350.805047 103.520953 
L 350.895355 114.327314 
L 350.985662 113.953299 
L 351.075969 111.554379 
L 351.346891 113.601852 
L 351.437198 113.634622 
L 351.617813 114.268828 
L 351.888734 113.086754 
L 352.249963 106.849378 
L 352.430578 107.926277 
L 352.611192 111.208391 
L 352.791807 111.667582 
L 352.972421 110.568776 
L 353.062729 111.146173 
L 353.423958 108.04106 
L 353.604572 103.767648 
L 353.875494 105.313075 
L 353.965801 104.166763 
L 354.146415 104.891165 
L 354.236723 104.657278 
L 354.32703 105.265371 
L 354.417337 105.172445 
L 354.507644 104.684512 
L 354.868873 105.824329 
L 354.959181 105.561221 
L 355.049488 105.794597 
L 355.230102 106.768725 
L 355.32041 106.820257 
L 355.410717 107.05791 
L 355.501024 106.175394 
L 355.681639 108.471764 
L 355.771946 108.60949 
L 356.133175 104.401815 
L 356.313789 106.66106 
L 356.494404 108.366071 
L 356.584711 106.804518 
L 356.675018 107.53383 
L 356.855633 104.930593 
L 356.94594 104.635532 
L 357.036247 104.721131 
L 357.126555 105.015268 
L 357.307169 98.970107 
L 357.397476 99.001592 
L 357.487784 98.419245 
L 357.668398 100.709699 
L 357.758705 100.670757 
L 357.93932 112.980953 
L 358.029627 113.990541 
L 358.300549 112.370764 
L 358.752085 114.898517 
L 358.842392 115.921081 
L 359.023007 125.911355 
L 359.113314 127.074292 
L 359.384236 137.701751 
L 359.474543 138.410411 
L 359.56485 137.883226 
L 359.655157 134.50226 
L 359.745465 134.626462 
L 360.287308 146.833968 
L 360.377615 144.168992 
L 360.467923 144.367394 
L 360.648537 145.934795 
L 360.738844 144.130313 
L 360.829152 144.447471 
L 361.009766 146.985214 
L 361.100073 147.57347 
L 361.280688 151.528738 
L 361.370995 151.538592 
L 361.55161 152.844631 
L 361.912839 150.035545 
L 362.093453 142.635572 
L 362.274068 144.814424 
L 362.454682 146.053937 
L 362.544989 146.570911 
L 362.725604 146.091613 
L 362.906218 150.402429 
L 362.996525 150.652975 
L 363.086833 151.478337 
L 363.17714 151.274782 
L 363.357754 152.620582 
L 363.538369 150.862341 
L 363.628676 153.00738 
L 363.718983 152.870607 
L 364.351134 161.493621 
L 364.892978 159.464073 
L 364.983285 159.547496 
L 365.073592 159.325624 
L 365.434821 154.186151 
L 365.615436 148.555068 
L 365.886357 150.912293 
L 365.976665 151.68108 
L 366.066972 154.642697 
L 366.157279 153.756436 
L 366.247586 153.845541 
L 366.337894 153.584493 
L 366.78943 149.53927 
L 366.879737 147.655515 
L 367.060351 124.795203 
L 367.150659 122.417148 
L 367.511888 128.512318 
L 367.602195 128.282336 
L 367.782809 127.425545 
L 367.873117 127.590557 
L 367.963424 127.805551 
L 368.053731 128.398957 
L 368.234346 126.709042 
L 368.324653 127.143319 
L 368.685882 129.559348 
L 368.776189 129.310159 
L 368.956804 129.776585 
L 369.137418 128.81085 
L 369.227725 129.045794 
L 369.318033 128.882742 
L 369.40834 127.26144 
L 369.498647 127.795832 
L 369.769569 126.445561 
L 370.040491 125.413797 
L 370.130798 125.58905 
L 370.492027 119.738199 
L 370.582334 120.33461 
L 371.124178 118.131513 
L 371.304792 116.19955 
L 371.485406 112.066341 
L 371.575714 112.102114 
L 371.846635 111.189788 
L 372.02725 109.609908 
L 372.117557 110.030921 
L 372.298172 117.554937 
L 372.478786 112.982765 
L 372.569093 113.105231 
L 372.659401 112.807183 
L 372.749708 116.998997 
L 372.930322 113.370328 
L 373.02063 116.062326 
L 373.201244 104.556786 
L 373.291551 102.452394 
L 373.472166 87.678495 
L 374.104317 82.634431 
L 374.284931 79.433507 
L 374.465546 80.231032 
L 374.826775 78.926373 
L 374.917082 78.724117 
L 375.188004 79.598096 
L 375.278311 79.389867 
L 375.368618 79.176954 
L 375.458925 79.519409 
L 375.549233 80.328009 
L 375.820154 85.518766 
L 376.091076 87.663407 
L 376.452305 95.498548 
L 376.632919 97.014372 
L 376.723227 96.174955 
L 376.813534 96.334588 
L 376.903841 96.873139 
L 377.084456 95.843447 
L 377.174763 95.811778 
L 377.26507 96.432727 
L 377.445685 98.620365 
L 377.626299 94.808526 
L 377.897221 67.556923 
L 378.077835 66.27644 
L 378.168143 66.115748 
L 378.439064 67.325516 
L 378.619679 66.894835 
L 378.800293 72.150307 
L 378.980908 69.940536 
L 379.161522 63.586813 
L 379.25183 63.380274 
L 379.613059 64.125042 
L 379.703366 64.070258 
L 380.064595 64.905242 
L 380.154902 64.562976 
L 380.335517 63.542294 
L 380.696745 62.921703 
L 380.87736 60.974787 
L 380.967667 61.060925 
L 381.148282 62.772872 
L 381.419203 61.856132 
L 381.780432 62.482898 
L 381.87074 62.429926 
L 381.961047 62.129062 
L 382.051354 61.270312 
L 382.231969 57.671076 
L 382.412583 57.499737 
L 382.773812 57.713731 
L 383.044734 60.099761 
L 383.135041 59.933266 
L 383.767192 56.763132 
L 383.857499 58.64011 
L 383.947806 58.352582 
L 384.128421 57.232784 
L 384.579957 60.016195 
L 384.670264 59.932435 
L 384.760572 59.591127 
L 384.850879 59.641903 
L 385.212108 60.717693 
L 385.483029 59.463435 
L 385.753951 57.800416 
L 386.024873 56.851678 
L 386.205487 56.956788 
L 386.295795 57.025083 
L 386.657024 56.753022 
L 386.747331 56.743589 
L 386.837638 56.886794 
L 387.018253 57.79837 
L 387.198867 57.522927 
L 387.469789 58.194295 
L 387.650403 58.723482 
L 388.011632 57.728213 
L 388.282554 58.110033 
L 388.73409 56.728515 
L 388.914705 57.340147 
L 389.005012 57.374199 
L 389.366241 57.012328 
L 389.546855 57.11926 
L 389.817777 57.306627 
L 390.088699 56.98909 
L 390.269313 57.010487 
L 390.540235 57.047045 
L 391.172386 57.566564 
L 391.353 57.331077 
L 391.533615 57.611662 
L 391.714229 57.051183 
L 391.894844 57.201911 
L 392.436687 56.588113 
L 392.617302 56.422808 
L 392.978531 57.036598 
L 393.159145 56.530959 
L 393.33976 56.108687 
L 393.610682 56.118082 
L 393.791296 56.096185 
L 393.881603 56.4003 
L 394.152525 59.086348 
L 394.242832 59.121702 
L 394.333139 59.360368 
L 394.513754 59.047785 
L 394.604061 58.456181 
L 394.784676 58.915532 
L 394.874983 58.697379 
L 395.055597 57.528157 
L 395.145905 57.693202 
L 395.326519 57.567968 
L 395.687748 56.210799 
L 395.95867 55.445021 
L 396.229592 55.871847 
L 396.319899 55.855262 
L 396.500513 55.552128 
L 396.590821 55.905139 
L 396.771435 59.215583 
L 396.861742 59.319379 
L 397.042357 55.982722 
L 397.132664 56.192039 
L 397.403586 58.14915 
L 397.493893 58.227582 
L 397.674508 57.730262 
L 398.396965 61.377565 
L 398.487273 61.388376 
L 398.487273 61.388376 
" clip-path="url(#p1c1ebd3428)" style="fill: none; stroke: #1f77b4; stroke-width: 1.5; stroke-linecap: square"/>
   </g>
   <g id="patch_3">
    <path d="M 57.6 307.584 
L 57.6 41.472 
" style="fill: none; stroke: #000000; stroke-width: 0.8; stroke-linejoin: miter; stroke-linecap: square"/>
   </g>
   <g id="patch_4">
    <path d="M 414.72 307.584 
L 414.72 41.472 
" style="fill: none; stroke: #000000; stroke-width: 0.8; stroke-linejoin: miter; stroke-linecap: square"/>
   </g>
   <g id="patch_5">
    <path d="M 57.6 307.584 
L 414.72 307.584 
" style="fill: none; stroke: #000000; stroke-width: 0.8; stroke-linejoin: miter; stroke-linecap: square"/>
   </g>
   <g id="patch_6">
    <path d="M 57.6 41.472 
L 414.72 41.472 
" style="fill: none; stroke: #000000; stroke-width: 0.8; stroke-linejoin: miter; stroke-linecap: square"/>
   </g>
  </g>
 </g>
 <defs>
  <clipPath id="p1c1ebd3428">
   <rect x="57.6" y="41.472" width="357.12" height="266.112"/>
  </clipPath>
 </defs>
</svg>
